<?xml version="1.0" standalone="no"?><svg xmlns:xlink="http://www.w3.org/1999/xlink" xmlns="http://www.w3.org/2000/svg" viewBox="0 0 1000 529.4150726640263" preserveAspectRatio="xMaxYMax slice"><g transform="scale(0.8033612635265953)"><rect x="0" y="0" width="1244.7777777777778" height="659" fill="#ffffff"/><rect x="0" y="0" width="73.22" height="73.22" fill="#86c9ee"/><path d="M 0 73.22 A 73.22 73.22 0 0 1  73.22 0 L 73.22 73.22" fill="#f6fef7"/><rect x="73.22" y="0" width="73.22" height="73.22" fill="#bcf7c0"/><polygon points="73.22,0 146.44,73.22 73.22,73.22" fill="#c0e3f6"/><rect x="146.44444444444446" y="0" width="73.22222222222223" height="73.22222222222223" fill="#ffffff"/><rect x="146.44" y="0" width="36.61" height="36.61" fill="#3aa8e3"/><path d="M 146.44 36.61 A 36.61 36.61 0 0 1 183.05 0 L 183.05 9.1525 A 27.4575 27.4575 0 0 0 155.5925 36.61" fill="#a8f4ad"/><rect x="183.06" y="0" width="36.61" height="36.61" fill="#acdaf3"/><path d="M 183.06 0 A 36.61 36.61 0 0 1 219.67000000000002 36.61 L 210.5175 36.61 A 27.4575 27.4575 0 0 0 183.06 9.1525" fill="#b7dff5"/><rect x="146.44" y="36.61" width="36.61" height="36.61" fill="#62eb6b"/><path d="M 146.44 36.61 A 36.61 36.61 0 0 0 183.05 73.22 L 183.05 64.0675 A 27.4575 27.4575 0 0 1 155.5925 36.61" fill="#a6d8f2"/><rect x="183.06" y="36.61" width="36.61" height="36.61" fill="#41abe4"/><path d="M 183.06 73.22 A 36.61 36.61 0 0 0 219.67000000000002 36.61 L 210.5175 36.61 A 27.4575 27.4575 0 0 1 183.06 64.0675" fill="#ffe7ed"/><rect x="219.66666666666669" y="0" width="73.22222222222223" height="73.22222222222223" fill="#ffffff"/><rect x="219.67" y="0" width="36.61" height="36.61" fill="#ffe2e9"/><circle cx="237.975" cy="18.305" r="18.305" fill="#4cb0e5"/><rect x="256.28" y="0" width="36.61" height="36.61" fill="#95f29b"/><rect x="256.28" y="0" width="36.61" height="36.61" fill="#cae8f7"/><rect x="219.67" y="36.61" width="36.61" height="36.61" fill="#e3fbe5"/><circle cx="237.975" cy="54.915" r="18.305" fill="#a5d7f2"/><rect x="256.28" y="36.61" width="36.61" height="36.61" fill="#b7f6bb"/><rect x="256.28" y="36.61" width="36.61" height="36.61" fill="#c3e4f6"/><rect x="292.8888888888889" y="0" width="73.22222222222223" height="73.22222222222223" fill="#ffffff"/><rect x="292.89" y="0" width="36.61" height="36.61" fill="#d3ebf9"/><path d="M 292.89 36.61 A 36.61 36.61 0 0 1 329.5 0 L 329.5 9.1525 A 27.4575 27.4575 0 0 0 302.04249999999996 36.61" fill="#83ef8a"/><rect x="329.5" y="0" width="36.61" height="36.61" fill="#1fe32c"/><path d="M 329.5 0 A 36.61 36.61 0 0 1 366.11 36.61 L 356.9575 36.61 A 27.4575 27.4575 0 0 0 329.5 9.1525" fill="#95d0f0"/><rect x="292.89" y="36.61" width="36.61" height="36.61" fill="#91ceef"/><path d="M 292.89 36.61 A 36.61 36.61 0 0 0 329.5 73.22 L 329.5 64.0675 A 27.4575 27.4575 0 0 1 302.04249999999996 36.61" fill="#fff2f5"/><rect x="329.5" y="36.61" width="36.61" height="36.61" fill="#b5def4"/><path d="M 329.5 73.22 A 36.61 36.61 0 0 0 366.11 36.61 L 356.9575 36.61 A 27.4575 27.4575 0 0 1 329.5 64.0675" fill="#73ed7b"/><rect x="366.11111111111114" y="0" width="73.22222222222223" height="73.22222222222223" fill="#ffffff"/><rect x="366.11" y="0" width="36.61" height="36.61" fill="#67ec6f"/><polygon points="402.72,0 402.72,36.61 366.11,36.61" fill="#d3ecf9"/><rect x="402.72" y="0" width="36.61" height="36.61" fill="#64ec6d"/><polygon points="402.72,0 439.33000000000004,36.61 402.72,36.61" fill="#ff8ea9"/><rect x="366.11" y="36.61" width="36.61" height="36.61" fill="#5ceb65"/><polygon points="366.11,36.61 402.72,36.61 366.11,73.22" fill="#3da9e3"/><rect x="402.72" y="36.61" width="36.61" height="36.61" fill="#ffc5d3"/><polygon points="402.72,36.61 439.33000000000004,36.61 439.33000000000004,73.22" fill="#ff5880"/><rect x="439.33" y="0" width="73.22" height="73.22" fill="#b7dff5"/><path d="M 439.33 0 A 73.22 73.22 0 0 1  512.55 73.22 L 439.33 0 A 73.22 73.22 0 0 0 512.55 73.22" fill="#a8d8f3"/><rect x="512.56" y="0" width="73.22" height="73.22" fill="#ffe4ea"/><rect x="512.56" y="0" width="73.22" height="73.22" fill="#ffc7d4"/><rect x="585.7777777777778" y="0" width="73.22222222222223" height="73.22222222222223" fill="#ffffff"/><rect x="585.78" y="0" width="36.61" height="36.61" fill="#81c7ed"/><path d="M 585.78 36.61 A 36.61 36.61 0 0 1 622.39 0 L 622.39 9.1525 A 27.4575 27.4575 0 0 0 594.9325 36.61" fill="#21e32e"/><rect x="622.39" y="0" width="36.61" height="36.61" fill="#7bc4ec"/><path d="M 622.39 0 A 36.61 36.61 0 0 1 659 36.61 L 649.8475 36.61 A 27.4575 27.4575 0 0 0 622.39 9.1525" fill="#b9f6bd"/><rect x="585.78" y="36.61" width="36.61" height="36.61" fill="#bcf7c0"/><path d="M 585.78 36.61 A 36.61 36.61 0 0 0 622.39 73.22 L 622.39 64.0675 A 27.4575 27.4575 0 0 1 594.9325 36.61" fill="#ff7c9b"/><rect x="622.39" y="36.61" width="36.61" height="36.61" fill="#ffe7ec"/><path d="M 622.39 73.22 A 36.61 36.61 0 0 0 659 36.61 L 649.8475 36.61 A 27.4575 27.4575 0 0 1 622.39 64.0675" fill="#ff8faa"/><rect x="659" y="0" width="73.22" height="73.22" fill="#ff6e91"/><path d="M 659 0 A 73.22 73.22 0 0 0 732.22 73.22 L 732.22 0" fill="#88caee"/><rect x="732.2222222222223" y="0" width="73.22222222222223" height="73.22222222222223" fill="#ffffff"/><rect x="732.22" y="0" width="36.61" height="36.61" fill="#ffb5c7"/><path d="M 732.22 0 A 36.61 36.61 0 0 1 768.83 36.61 L 732.22 36.61" fill="#8cf192"/><rect x="768.83" y="0" width="36.61" height="36.61" fill="#90ceef"/><path d="M 768.83 36.61 A 36.61 36.61 0 0 1  805.44 0 L 805.44 36.61" fill="#ff3666"/><rect x="732.22" y="36.61" width="36.61" height="36.61" fill="#a5d7f2"/><path d="M 732.22 73.22 A 36.61 36.61 0 0 0 768.83 36.61 L 732.22 36.61" fill="#ffe3ea"/><rect x="768.83" y="36.61" width="36.61" height="36.61" fill="#bce1f5"/><path d="M 768.83 36.61 A 36.61 36.61 0 0 0 805.44 73.22 L 805.44 36.61" fill="#ffd4df"/><rect x="805.44" y="0" width="73.22" height="73.22" fill="#ffffff"/><rect x="805.44" y="0" width="73.22" height="73.22" fill="#38a7e2"/><rect x="878.67" y="0" width="73.22" height="73.22" fill="#e5fce6"/><polygon points="951.89,0 951.89,73.22 878.67,73.22" fill="#ff99b2"/><rect x="951.89" y="0" width="73.22" height="73.22" fill="#e9fcea"/><polygon points="951.89,0 1025.11,0 951.89,73.22" fill="#ffe0e7"/><rect x="1025.1111111111113" y="0" width="73.22222222222223" height="73.22222222222223" fill="#ffffff"/><rect x="1025.11" y="0" width="36.61" height="36.61" fill="#ff678b"/><path d="M 1025.11 36.61 A 36.61 36.61 0 0 0 1061.7199999999998 0 L 1025.11 0" fill="#addbf3"/><rect x="1061.72" y="0" width="36.61" height="36.61" fill="#3ba8e3"/><path d="M 1061.72 0 A 36.61 36.61 0 0 0 1098.33 36.61 L 1098.33 0" fill="#fffcfd"/><rect x="1025.11" y="36.61" width="36.61" height="36.61" fill="#e4fce6"/><path d="M 1025.11 36.61 A 36.61 36.61 0 0 1 1061.7199999999998 73.22 L 1025.11 73.22" fill="#ffdfe7"/><rect x="1061.72" y="36.61" width="36.61" height="36.61" fill="#ffc2d1"/><path d="M 1061.72 73.22 A 36.61 36.61 0 0 1  1098.33 36.61 L 1098.33 73.22" fill="#50b1e6"/><rect x="1098.33" y="0" width="73.22" height="73.22" fill="#caf8cd"/><rect x="1098.33" y="0" width="73.22" height="73.22" fill="#95f29b"/><rect x="1171.5555555555557" y="0" width="73.22222222222223" height="73.22222222222223" fill="#ffffff"/><rect x="1171.56" y="0" width="36.61" height="36.61" fill="#f1f9fd"/><polygon points="1208.1699999999998,0 1208.1699999999998,36.61 1171.56,36.61" fill="#4bafe5"/><rect x="1208.17" y="0" width="36.61" height="36.61" fill="#18e225"/><polygon points="1208.17,0 1244.78,0 1208.17,36.61" fill="#70ed78"/><rect x="1171.56" y="36.61" width="36.61" height="36.61" fill="#ff577f"/><polygon points="1171.56,36.61 1208.1699999999998,36.61 1208.1699999999998,73.22" fill="#76c2eb"/><rect x="1208.17" y="36.61" width="36.61" height="36.61" fill="#85f08c"/><polygon points="1208.17,36.61 1244.78,73.22 1208.17,73.22" fill="#ff8ba7"/><rect x="0" y="73.22" width="73.22" height="73.22" fill="#6aec73"/><rect x="0" y="73.22" width="73.22" height="73.22" fill="#cef9d1"/><rect x="73.22" y="73.22" width="73.22" height="73.22" fill="#ffbbcb"/><polygon points="73.22,73.22 146.44,73.22 146.44,146.44" fill="#a1f3a6"/><rect x="146.44444444444446" y="73.22222222222223" width="73.22222222222223" height="73.22222222222223" fill="#ffffff"/><rect x="146.44" y="73.22" width="36.61" height="36.61" fill="#ffcad6"/><path d="M 146.44 109.83 A 36.61 36.61 0 0 1  183.05 73.22 L 183.05 109.83" fill="#ff94ad"/><rect x="183.06" y="73.22" width="36.61" height="36.61" fill="#e7fce8"/><path d="M 183.06 73.22 A 36.61 36.61 0 0 1 219.67000000000002 109.83 L 183.06 109.83" fill="#f9fef9"/><rect x="146.44" y="109.83" width="36.61" height="36.61" fill="#5fb8e8"/><path d="M 146.44 109.83 A 36.61 36.61 0 0 0 183.05 146.44 L 183.05 109.83" fill="#35e640"/><rect x="183.06" y="109.83" width="36.61" height="36.61" fill="#b9e0f5"/><path d="M 183.06 146.44 A 36.61 36.61 0 0 0 219.67000000000002 109.83 L 183.06 109.83" fill="#ffc0cf"/><rect x="219.66666666666669" y="73.22222222222223" width="73.22222222222223" height="73.22222222222223" fill="#ffffff"/><rect x="219.67" y="73.22" width="36.61" height="36.61" fill="#77ee7e"/><polygon points="256.28,73.22 256.28,109.83 219.67,109.83" fill="#3fe749"/><rect x="256.28" y="73.22" width="36.61" height="36.61" fill="#daeffa"/><polygon points="256.28,73.22 292.89,109.83 256.28,109.83" fill="#9df3a3"/><rect x="219.67" y="109.83" width="36.61" height="36.61" fill="#dffbe1"/><polygon points="219.67,109.83 256.28,109.83 219.67,146.44" fill="#5cb6e8"/><rect x="256.28" y="109.83" width="36.61" height="36.61" fill="#41abe4"/><polygon points="256.28,109.83 292.89,109.83 292.89,146.44" fill="#bae0f5"/><rect x="292.89" y="73.22" width="73.22" height="73.22" fill="#239ddf"/><polygon points="292.89,73.22 366.11,73.22 292.89,146.44" fill="#45e84f"/><rect x="366.11111111111114" y="73.22222222222223" width="73.22222222222223" height="73.22222222222223" fill="#ffffff"/><rect x="366.11" y="73.22" width="36.61" height="36.61" fill="#269ee0"/><path d="M 366.11 73.22 A 36.61 36.61 0 0 1 402.72 109.83 L 366.11 109.83" fill="#ffb1c4"/><rect x="402.72" y="73.22" width="36.61" height="36.61" fill="#ffe1e8"/><path d="M 402.72 109.83 A 36.61 36.61 0 0 1  439.33000000000004 73.22 L 439.33000000000004 109.83" fill="#ff668a"/><rect x="366.11" y="109.83" width="36.61" height="36.61" fill="#41abe4"/><path d="M 366.11 146.44 A 36.61 36.61 0 0 0 402.72 109.83 L 366.11 109.83" fill="#ff6489"/><rect x="402.72" y="109.83" width="36.61" height="36.61" fill="#ffcfda"/><path d="M 402.72 109.83 A 36.61 36.61 0 0 0 439.33000000000004 146.44 L 439.33000000000004 109.83" fill="#a0f3a5"/><rect x="439.33333333333337" y="73.22222222222223" width="73.22222222222223" height="73.22222222222223" fill="#ffffff"/><rect x="439.33" y="73.22" width="36.61" height="36.61" fill="#c7e6f7"/><path d="M 439.33 109.83 A 36.61 36.61 0 0 0 475.94 73.22 L 439.33 73.22" fill="#37a6e2"/><rect x="475.94" y="73.22" width="36.61" height="36.61" fill="#ff9eb5"/><path d="M 475.94 73.22 A 36.61 36.61 0 0 0 512.55 109.83 L 512.55 73.22" fill="#ffd8e1"/><rect x="439.33" y="109.83" width="36.61" height="36.61" fill="#f3fdf3"/><path d="M 439.33 109.83 A 36.61 36.61 0 0 1 475.94 146.44 L 439.33 146.44" fill="#5cb7e8"/><rect x="475.94" y="109.83" width="36.61" height="36.61" fill="#ff82a0"/><path d="M 475.94 146.44 A 36.61 36.61 0 0 1  512.55 109.83 L 512.55 146.44" fill="#64ec6d"/><rect x="512.56" y="73.22" width="73.22" height="73.22" fill="#b7dff5"/><path d="M 512.56 146.44 A 73.22 73.22 0 0 1  585.78 73.22 L 585.78 146.44" fill="#7bc4ec"/><rect x="585.78" y="73.22" width="73.22" height="73.22" fill="#97d1f0"/><path d="M 585.78 73.22 A 73.22 73.22 0 0 0 659 146.44 L 659 73.22" fill="#e0f1fb"/><rect x="659" y="73.22222222222223" width="73.22222222222223" height="73.22222222222223" fill="#ffffff"/><rect x="659" y="73.22" width="36.61" height="36.61" fill="#70ed78"/><path d="M 659 73.22 A 36.61 36.61 0 0 1 695.61 109.83 L 659 109.83" fill="#fcfeff"/><rect x="695.61" y="73.22" width="36.61" height="36.61" fill="#a5d7f2"/><path d="M 695.61 109.83 A 36.61 36.61 0 0 1  732.22 73.22 L 732.22 109.83" fill="#f3fdf4"/><rect x="659" y="109.83" width="36.61" height="36.61" fill="#55ea5f"/><path d="M 659 146.44 A 36.61 36.61 0 0 0 695.61 109.83 L 659 109.83" fill="#75ee7d"/><rect x="695.61" y="109.83" width="36.61" height="36.61" fill="#ff9cb4"/><path d="M 695.61 109.83 A 36.61 36.61 0 0 0 732.22 146.44 L 732.22 109.83" fill="#28e434"/><rect x="732.22" y="73.22" width="73.22" height="73.22" fill="#ff84a2"/><rect x="732.22" y="73.22" width="73.22" height="73.22" fill="#ff3666"/><rect x="805.4444444444446" y="73.22222222222223" width="73.22222222222223" height="73.22222222222223" fill="#ffffff"/><rect x="805.44" y="73.22" width="36.61" height="36.61" fill="#68bce9"/><path d="M 805.44 73.22 A 36.61 36.61 0 0 1 842.0500000000001 109.83 L 805.44 109.83" fill="#ff829f"/><rect x="842.06" y="73.22" width="36.61" height="36.61" fill="#ff5079"/><path d="M 842.06 109.83 A 36.61 36.61 0 0 1  878.67 73.22 L 878.67 109.83" fill="#88caee"/><rect x="805.44" y="109.83" width="36.61" height="36.61" fill="#36a6e2"/><path d="M 805.44 146.44 A 36.61 36.61 0 0 0 842.0500000000001 109.83 L 805.44 109.83" fill="#ff507a"/><rect x="842.06" y="109.83" width="36.61" height="36.61" fill="#219ddf"/><path d="M 842.06 109.83 A 36.61 36.61 0 0 0 878.67 146.44 L 878.67 109.83" fill="#ffb9c9"/><rect x="878.6666666666667" y="73.22222222222223" width="73.22222222222223" height="73.22222222222223" fill="#ffffff"/><rect x="878.67" y="73.22" width="36.61" height="36.61" fill="#ff4470"/><path d="M 878.67 73.22 A 36.61 36.61 0 0 1 915.28 109.83 L 878.67 109.83" fill="#ffa3b9"/><rect x="915.28" y="73.22" width="36.61" height="36.61" fill="#4ee958"/><path d="M 915.28 109.83 A 36.61 36.61 0 0 1  951.89 73.22 L 951.89 109.83" fill="#e3f3fb"/><rect x="878.67" y="109.83" width="36.61" height="36.61" fill="#81ef88"/><path d="M 878.67 146.44 A 36.61 36.61 0 0 0 915.28 109.83 L 878.67 109.83" fill="#68bce9"/><rect x="915.28" y="109.83" width="36.61" height="36.61" fill="#b3ddf4"/><path d="M 915.28 109.83 A 36.61 36.61 0 0 0 951.89 146.44 L 951.89 109.83" fill="#ffc3d1"/><rect x="951.8888888888889" y="73.22222222222223" width="73.22222222222223" height="73.22222222222223" fill="#ffffff"/><rect x="951.89" y="73.22" width="36.61" height="36.61" fill="#ff9cb3"/><path d="M 951.89 73.22 A 36.61 36.61 0 0 0 988.5 109.83 L 988.5 73.22" fill="#ff90aa"/><rect x="988.5" y="73.22" width="36.61" height="36.61" fill="#ffffff"/><path d="M 988.5 109.83 A 36.61 36.61 0 0 0 1025.11 73.22 L 988.5 73.22" fill="#24e330"/><rect x="951.89" y="109.83" width="36.61" height="36.61" fill="#ff416e"/><path d="M 951.89 146.44 A 36.61 36.61 0 0 1  988.5 109.83 L 988.5 146.44" fill="#44e84f"/><rect x="988.5" y="109.83" width="36.61" height="36.61" fill="#ff809e"/><path d="M 988.5 109.83 A 36.61 36.61 0 0 1 1025.11 146.44 L 988.5 146.44" fill="#56ea5f"/><rect x="1025.1111111111113" y="73.22222222222223" width="73.22222222222223" height="73.22222222222223" fill="#ffffff"/><rect x="1025.11" y="73.22" width="36.61" height="36.61" fill="#72ed7a"/><path d="M 1025.11 109.83 A 36.61 36.61 0 0 1 1061.7199999999998 73.22 L 1061.7199999999998 82.3725 A 27.4575 27.4575 0 0 0 1034.2624999999998 109.83" fill="#7cef83"/><rect x="1061.72" y="73.22" width="36.61" height="36.61" fill="#9ad2f0"/><path d="M 1061.72 73.22 A 36.61 36.61 0 0 1 1098.33 109.83 L 1089.1775 109.83 A 27.4575 27.4575 0 0 0 1061.72 82.3725" fill="#60eb69"/><rect x="1025.11" y="109.83" width="36.61" height="36.61" fill="#a4f4a9"/><path d="M 1025.11 109.83 A 36.61 36.61 0 0 0 1061.7199999999998 146.44 L 1061.7199999999998 137.2875 A 27.4575 27.4575 0 0 1 1034.2624999999998 109.83" fill="#c8f8cb"/><rect x="1061.72" y="109.83" width="36.61" height="36.61" fill="#8df193"/><path d="M 1061.72 146.44 A 36.61 36.61 0 0 0 1098.33 109.83 L 1089.1775 109.83 A 27.4575 27.4575 0 0 1 1061.72 137.2875" fill="#ff9bb2"/><rect x="1098.33" y="73.22" width="73.22" height="73.22" fill="#c1e3f6"/><rect x="1098.33" y="73.22" width="73.22" height="73.22" fill="#b4def4"/><rect x="1171.5555555555557" y="73.22222222222223" width="73.22222222222223" height="73.22222222222223" fill="#ffffff"/><rect x="1171.56" y="73.22" width="36.61" height="36.61" fill="#ffb6c7"/><path d="M 1171.56 109.83 A 36.61 36.61 0 0 1 1208.1699999999998 73.22 L 1208.1699999999998 82.3725 A 27.4575 27.4575 0 0 0 1180.7124999999999 109.83" fill="#e4f3fb"/><rect x="1208.17" y="73.22" width="36.61" height="36.61" fill="#32e53d"/><path d="M 1208.17 73.22 A 36.61 36.61 0 0 1 1244.78 109.83 L 1235.6275 109.83 A 27.4575 27.4575 0 0 0 1208.17 82.3725" fill="#8fcdef"/><rect x="1171.56" y="109.83" width="36.61" height="36.61" fill="#cbe8f8"/><path d="M 1171.56 109.83 A 36.61 36.61 0 0 0 1208.1699999999998 146.44 L 1208.1699999999998 137.2875 A 27.4575 27.4575 0 0 1 1180.7124999999999 109.83" fill="#6fed77"/><rect x="1208.17" y="109.83" width="36.61" height="36.61" fill="#ffbdcd"/><path d="M 1208.17 146.44 A 36.61 36.61 0 0 0 1244.78 109.83 L 1235.6275 109.83 A 27.4575 27.4575 0 0 1 1208.17 137.2875" fill="#6aec72"/><rect x="0" y="146.44444444444446" width="73.22222222222223" height="73.22222222222223" fill="#ffffff"/><rect x="0" y="146.44" width="36.61" height="36.61" fill="#ff7697"/><path d="M 0 183.05 A 36.61 36.61 0 0 0 36.61 146.44 L 0 146.44" fill="#d5fad8"/><rect x="36.61" y="146.44" width="36.61" height="36.61" fill="#ff6288"/><path d="M 36.61 146.44 A 36.61 36.61 0 0 0 73.22 183.05 L 73.22 146.44" fill="#dceffa"/><rect x="0" y="183.06" width="36.61" height="36.61" fill="#e1f1fb"/><path d="M 0 183.06 A 36.61 36.61 0 0 1 36.61 219.67000000000002 L 0 219.67000000000002" fill="#bae0f5"/><rect x="36.61" y="183.06" width="36.61" height="36.61" fill="#ffedf1"/><path d="M 36.61 219.67000000000002 A 36.61 36.61 0 0 1  73.22 183.06 L 73.22 219.67000000000002" fill="#ffe9ee"/><rect x="73.22222222222223" y="146.44444444444446" width="73.22222222222223" height="73.22222222222223" fill="#ffffff"/><rect x="73.22" y="146.44" width="36.61" height="36.61" fill="#5cb7e8"/><circle cx="91.525" cy="164.745" r="18.305" fill="#7cef84"/><rect x="109.83" y="146.44" width="36.61" height="36.61" fill="#ff7193"/><rect x="109.83" y="146.44" width="36.61" height="36.61" fill="#73ed7b"/><rect x="73.22" y="183.06" width="36.61" height="36.61" fill="#c1e4f6"/><circle cx="91.525" cy="201.365" r="18.305" fill="#ffe5eb"/><rect x="109.83" y="183.06" width="36.61" height="36.61" fill="#a4f4a9"/><rect x="109.83" y="183.06" width="36.61" height="36.61" fill="#ff8ca7"/><rect x="146.44444444444446" y="146.44444444444446" width="73.22222222222223" height="73.22222222222223" fill="#ffffff"/><rect x="146.44" y="146.44" width="36.61" height="36.61" fill="#b6f6ba"/><polygon points="183.05,146.44 183.05,183.05 146.44,183.05" fill="#c2f7c5"/><rect x="183.06" y="146.44" width="36.61" height="36.61" fill="#a4d7f2"/><polygon points="183.06,146.44 219.67000000000002,146.44 183.06,183.05" fill="#2ee53a"/><rect x="146.44" y="183.06" width="36.61" height="36.61" fill="#a6d7f2"/><polygon points="146.44,183.06 183.05,183.06 183.05,219.67000000000002" fill="#4fb1e6"/><rect x="183.06" y="183.06" width="36.61" height="36.61" fill="#ff7797"/><polygon points="183.06,183.06 219.67000000000002,219.67000000000002 183.06,219.67000000000002" fill="#ff9db4"/><rect x="219.66666666666669" y="146.44444444444446" width="73.22222222222223" height="73.22222222222223" fill="#ffffff"/><rect x="219.67" y="146.44" width="36.61" height="36.61" fill="#66bbe9"/><polygon points="256.28,146.44 256.28,183.05 219.67,183.05" fill="#ffb5c6"/><rect x="256.28" y="146.44" width="36.61" height="36.61" fill="#dff1fa"/><polygon points="256.28,146.44 292.89,183.05 256.28,183.05" fill="#dafadc"/><rect x="219.67" y="183.06" width="36.61" height="36.61" fill="#ff567e"/><polygon points="219.67,183.06 256.28,183.06 219.67,219.67000000000002" fill="#58ea62"/><rect x="256.28" y="183.06" width="36.61" height="36.61" fill="#ffa8bd"/><polygon points="256.28,183.06 292.89,183.06 292.89,219.67000000000002" fill="#fffcfc"/><rect x="292.8888888888889" y="146.44444444444446" width="73.22222222222223" height="73.22222222222223" fill="#ffffff"/><rect x="292.89" y="146.44" width="36.61" height="36.61" fill="#ff89a5"/><polygon points="329.5,146.44 329.5,183.05 292.89,183.05" fill="#45ace4"/><rect x="329.5" y="146.44" width="36.61" height="36.61" fill="#ff3666"/><polygon points="329.5,146.44 366.11,183.05 329.5,183.05" fill="#e3fbe4"/><rect x="292.89" y="183.06" width="36.61" height="36.61" fill="#4db0e5"/><polygon points="292.89,183.06 329.5,183.06 292.89,219.67000000000002" fill="#fff4f7"/><rect x="329.5" y="183.06" width="36.61" height="36.61" fill="#fffbfc"/><polygon points="329.5,183.06 366.11,183.06 366.11,219.67000000000002" fill="#3be646"/><rect x="366.11111111111114" y="146.44444444444446" width="73.22222222222223" height="73.22222222222223" fill="#ffffff"/><rect x="366.11" y="146.44" width="36.61" height="36.61" fill="#ff426f"/><polygon points="402.72,146.44 402.72,183.05 366.11,183.05" fill="#4fe959"/><rect x="402.72" y="146.44" width="36.61" height="36.61" fill="#70ed78"/><polygon points="402.72,146.44 439.33000000000004,183.05 402.72,183.05" fill="#5bb6e7"/><rect x="366.11" y="183.06" width="36.61" height="36.61" fill="#5feb68"/><polygon points="366.11,183.06 402.72,183.06 402.72,219.67000000000002" fill="#ffceda"/><rect x="402.72" y="183.06" width="36.61" height="36.61" fill="#cce8f8"/><polygon points="402.72,183.06 439.33000000000004,183.06 402.72,219.67000000000002" fill="#fff5f7"/><rect x="439.33333333333337" y="146.44444444444446" width="73.22222222222223" height="73.22222222222223" fill="#ffffff"/><rect x="439.33" y="146.44" width="36.61" height="36.61" fill="#8df193"/><polygon points="475.94,146.44 475.94,183.05 439.33,183.05" fill="#adf5b1"/><rect x="475.94" y="146.44" width="36.61" height="36.61" fill="#64ec6c"/><polygon points="475.94,146.44 512.55,146.44 475.94,183.05" fill="#e9f5fc"/><rect x="439.33" y="183.06" width="36.61" height="36.61" fill="#a1f3a7"/><polygon points="439.33,183.06 475.94,183.06 475.94,219.67000000000002" fill="#9fd4f1"/><rect x="475.94" y="183.06" width="36.61" height="36.61" fill="#ffe9ee"/><polygon points="475.94,183.06 512.55,219.67000000000002 475.94,219.67000000000002" fill="#18e225"/><rect x="512.56" y="146.44" width="73.22" height="73.22" fill="#ff809e"/><path d="M 512.56 146.44 A 73.22 73.22 0 0 1  585.78 219.66 L 512.56 146.44 A 73.22 73.22 0 0 0 585.78 219.66" fill="#b9e0f5"/><rect x="585.78" y="146.44" width="73.22" height="73.22" fill="#ff688c"/><polygon points="585.78,146.44 659,219.66 585.78,219.66" fill="#ff7898"/><rect x="659" y="146.44444444444446" width="73.22222222222223" height="73.22222222222223" fill="#ffffff"/><rect x="659" y="146.44" width="36.61" height="36.61" fill="#a5f4aa"/><polygon points="695.61,146.44 695.61,183.05 659,183.05" fill="#45ace4"/><rect x="695.61" y="146.44" width="36.61" height="36.61" fill="#5fb8e8"/><polygon points="695.61,146.44 732.22,183.05 695.61,183.05" fill="#f8fcfe"/><rect x="659" y="183.06" width="36.61" height="36.61" fill="#d4ecf9"/><polygon points="659,183.06 695.61,183.06 695.61,219.67000000000002" fill="#ffe4ea"/><rect x="695.61" y="183.06" width="36.61" height="36.61" fill="#ffe0e8"/><polygon points="695.61,183.06 732.22,183.06 695.61,219.67000000000002" fill="#eaf6fc"/><rect x="732.2222222222223" y="146.44444444444446" width="73.22222222222223" height="73.22222222222223" fill="#ffffff"/><rect x="732.22" y="146.44" width="36.61" height="36.61" fill="#ddf0fa"/><polygon points="768.83,146.44 768.83,183.05 732.22,183.05" fill="#ff9fb6"/><rect x="768.83" y="146.44" width="36.61" height="36.61" fill="#5ab6e7"/><polygon points="768.83,146.44 805.44,183.05 768.83,183.05" fill="#5bb6e8"/><rect x="732.22" y="183.06" width="36.61" height="36.61" fill="#80c7ed"/><polygon points="732.22,183.06 768.83,183.06 732.22,219.67000000000002" fill="#ffe0e8"/><rect x="768.83" y="183.06" width="36.61" height="36.61" fill="#b1f5b5"/><polygon points="768.83,183.06 805.44,183.06 805.44,219.67000000000002" fill="#f2fdf3"/><rect x="805.4444444444446" y="146.44444444444446" width="73.22222222222223" height="73.22222222222223" fill="#ffffff"/><rect x="805.44" y="146.44" width="36.61" height="36.61" fill="#86caee"/><polygon points="842.0500000000001,146.44 842.0500000000001,183.05 805.44,183.05" fill="#ff3c6a"/><rect x="842.06" y="146.44" width="36.61" height="36.61" fill="#fff4f6"/><polygon points="842.06,146.44 878.67,146.44 842.06,183.05" fill="#4eb0e6"/><rect x="805.44" y="183.06" width="36.61" height="36.61" fill="#ff82a0"/><polygon points="805.44,183.06 842.0500000000001,183.06 842.0500000000001,219.67000000000002" fill="#acf5b1"/><rect x="842.06" y="183.06" width="36.61" height="36.61" fill="#33a4e2"/><polygon points="842.06,183.06 878.67,219.67000000000002 842.06,219.67000000000002" fill="#ff6388"/><rect x="878.67" y="146.44" width="73.22" height="73.22" fill="#ff688c"/><rect x="878.67" y="146.44" width="73.22" height="73.22" fill="#f2f9fd"/><rect x="951.8888888888889" y="146.44444444444446" width="73.22222222222223" height="73.22222222222223" fill="#ffffff"/><rect x="951.89" y="146.44" width="36.61" height="36.61" fill="#ff527b"/><polygon points="988.5,146.44 988.5,183.05 951.89,183.05" fill="#ff7999"/><rect x="988.5" y="146.44" width="36.61" height="36.61" fill="#ffa1b7"/><polygon points="988.5,146.44 1025.11,183.05 988.5,183.05" fill="#e4fce5"/><rect x="951.89" y="183.06" width="36.61" height="36.61" fill="#7fef86"/><polygon points="951.89,183.06 988.5,183.06 988.5,219.67000000000002" fill="#7def85"/><rect x="988.5" y="183.06" width="36.61" height="36.61" fill="#53e95d"/><polygon points="988.5,183.06 1025.11,183.06 988.5,219.67000000000002" fill="#c2f7c6"/><rect x="1025.1111111111113" y="146.44444444444446" width="73.22222222222223" height="73.22222222222223" fill="#ffffff"/><rect x="1025.11" y="146.44" width="36.61" height="36.61" fill="#26e432"/><circle cx="1043.415" cy="164.745" r="18.305" fill="#5bb6e7"/><rect x="1061.72" y="146.44" width="36.61" height="36.61" fill="#ffdfe7"/><rect x="1061.72" y="146.44" width="36.61" height="36.61" fill="#8ef194"/><rect x="1025.11" y="183.06" width="36.61" height="36.61" fill="#ff7798"/><circle cx="1043.415" cy="201.365" r="18.305" fill="#ff819f"/><rect x="1061.72" y="183.06" width="36.61" height="36.61" fill="#c5e5f7"/><rect x="1061.72" y="183.06" width="36.61" height="36.61" fill="#c3f7c7"/><rect x="1098.3333333333335" y="146.44444444444446" width="73.22222222222223" height="73.22222222222223" fill="#ffffff"/><rect x="1098.33" y="146.44" width="36.61" height="36.61" fill="#73ed7b"/><polygon points="1134.9399999999998,146.44 1134.9399999999998,183.05 1098.33,183.05" fill="#f7fef7"/><rect x="1134.94" y="146.44" width="36.61" height="36.61" fill="#2da2e1"/><polygon points="1134.94,146.44 1171.55,183.05 1134.94,183.05" fill="#ff527b"/><rect x="1098.33" y="183.06" width="36.61" height="36.61" fill="#ff7e9d"/><polygon points="1098.33,183.06 1134.9399999999998,183.06 1134.9399999999998,219.67000000000002" fill="#3faae3"/><rect x="1134.94" y="183.06" width="36.61" height="36.61" fill="#ff688c"/><polygon points="1134.94,183.06 1171.55,183.06 1134.94,219.67000000000002" fill="#ff7092"/><rect x="1171.5555555555557" y="146.44444444444446" width="73.22222222222223" height="73.22222222222223" fill="#ffffff"/><rect x="1171.56" y="146.44" width="36.61" height="36.61" fill="#8af091"/><path d="M 1171.56 183.05 A 36.61 36.61 0 0 1 1208.1699999999998 146.44 L 1208.1699999999998 155.5925 A 27.4575 27.4575 0 0 0 1180.7124999999999 183.05" fill="#ffc8d5"/><rect x="1208.17" y="146.44" width="36.61" height="36.61" fill="#41abe4"/><path d="M 1208.17 146.44 A 36.61 36.61 0 0 1 1244.78 183.05 L 1235.6275 183.05 A 27.4575 27.4575 0 0 0 1208.17 155.5925" fill="#79ee81"/><rect x="1171.56" y="183.06" width="36.61" height="36.61" fill="#fafefa"/><path d="M 1171.56 183.06 A 36.61 36.61 0 0 0 1208.1699999999998 219.67000000000002 L 1208.1699999999998 210.5175 A 27.4575 27.4575 0 0 1 1180.7124999999999 183.06" fill="#ffeef2"/><rect x="1208.17" y="183.06" width="36.61" height="36.61" fill="#71c0eb"/><path d="M 1208.17 219.67000000000002 A 36.61 36.61 0 0 0 1244.78 183.06 L 1235.6275 183.06 A 27.4575 27.4575 0 0 1 1208.17 210.5175" fill="#33e53e"/><rect x="0" y="219.67" width="73.22" height="73.22" fill="#d6edf9"/><rect x="0" y="219.67" width="73.22" height="73.22" fill="#4aafe5"/><rect x="73.22" y="219.67" width="73.22" height="73.22" fill="#ff9bb3"/><rect x="73.22" y="219.67" width="73.22" height="73.22" fill="#ff5a81"/><rect x="146.44444444444446" y="219.66666666666669" width="73.22222222222223" height="73.22222222222223" fill="#ffffff"/><rect x="146.44" y="219.67" width="36.61" height="36.61" fill="#afdbf3"/><path d="M 146.44 219.67 A 36.61 36.61 0 0 0 183.05 256.28 L 183.05 219.67" fill="#ff3565"/><rect x="183.06" y="219.67" width="36.61" height="36.61" fill="#c2f7c6"/><path d="M 183.06 256.28 A 36.61 36.61 0 0 0 219.67000000000002 219.67 L 183.06 219.67" fill="#e4f3fb"/><rect x="146.44" y="256.28" width="36.61" height="36.61" fill="#59ea63"/><path d="M 146.44 292.89 A 36.61 36.61 0 0 1  183.05 256.28 L 183.05 292.89" fill="#ff6489"/><rect x="183.06" y="256.28" width="36.61" height="36.61" fill="#54b3e6"/><path d="M 183.06 256.28 A 36.61 36.61 0 0 1 219.67000000000002 292.89 L 183.06 292.89" fill="#e9f5fc"/><rect x="219.67" y="219.67" width="73.22" height="73.22" fill="#fcfffc"/><path d="M 219.67 219.67 A 73.22 73.22 0 0 1  292.89 292.89 L 219.67 219.67 A 73.22 73.22 0 0 0 292.89 292.89" fill="#8fcdef"/><rect x="292.89" y="219.67" width="73.22" height="73.22" fill="#a7d8f2"/><path d="M 292.89 219.67 A 73.22 73.22 0 0 0 366.11 292.89 L 366.11 219.67" fill="#269fe0"/><rect x="366.11111111111114" y="219.66666666666669" width="73.22222222222223" height="73.22222222222223" fill="#ffffff"/><rect x="366.11" y="219.67" width="36.61" height="36.61" fill="#48aee5"/><polygon points="402.72,219.67 402.72,256.28 366.11,256.28" fill="#ff688c"/><rect x="402.72" y="219.67" width="36.61" height="36.61" fill="#84f08b"/><polygon points="402.72,219.67 439.33000000000004,219.67 402.72,256.28" fill="#ffa6bb"/><rect x="366.11" y="256.28" width="36.61" height="36.61" fill="#7eef86"/><polygon points="366.11,256.28 402.72,256.28 402.72,292.89" fill="#7fc6ed"/><rect x="402.72" y="256.28" width="36.61" height="36.61" fill="#8bccee"/><polygon points="402.72,256.28 439.33000000000004,292.89 402.72,292.89" fill="#f9fcfe"/><rect x="439.33333333333337" y="219.66666666666669" width="73.22222222222223" height="73.22222222222223" fill="#ffffff"/><rect x="439.33" y="219.67" width="36.61" height="36.61" fill="#afdbf3"/><path d="M 439.33 256.28 A 36.61 36.61 0 0 1 475.94 219.67 L 475.94 228.8225 A 27.4575 27.4575 0 0 0 448.48249999999996 256.28" fill="#4ae854"/><rect x="475.94" y="219.67" width="36.61" height="36.61" fill="#f6fef7"/><path d="M 475.94 219.67 A 36.61 36.61 0 0 1 512.55 256.28 L 503.3975 256.28 A 27.4575 27.4575 0 0 0 475.94 228.8225" fill="#38e643"/><rect x="439.33" y="256.28" width="36.61" height="36.61" fill="#ff6186"/><path d="M 439.33 256.28 A 36.61 36.61 0 0 0 475.94 292.89 L 475.94 283.73749999999995 A 27.4575 27.4575 0 0 1 448.48249999999996 256.28" fill="#62b9e8"/><rect x="475.94" y="256.28" width="36.61" height="36.61" fill="#64ec6d"/><path d="M 475.94 292.89 A 36.61 36.61 0 0 0 512.55 256.28 L 503.3975 256.28 A 27.4575 27.4575 0 0 1 475.94 283.73749999999995" fill="#f6fbfe"/><rect x="512.5555555555557" y="219.66666666666669" width="73.22222222222223" height="73.22222222222223" fill="#ffffff"/><rect x="512.56" y="219.67" width="36.61" height="36.61" fill="#2de539"/><path d="M 512.56 256.28 A 36.61 36.61 0 0 1  549.17 219.67 L 549.17 256.28" fill="#ff426f"/><rect x="549.17" y="219.67" width="36.61" height="36.61" fill="#f2f9fd"/><path d="M 549.17 219.67 A 36.61 36.61 0 0 1 585.78 256.28 L 549.17 256.28" fill="#39e644"/><rect x="512.56" y="256.28" width="36.61" height="36.61" fill="#ffd4de"/><path d="M 512.56 256.28 A 36.61 36.61 0 0 0 549.17 292.89 L 549.17 256.28" fill="#269fe0"/><rect x="549.17" y="256.28" width="36.61" height="36.61" fill="#1fe32b"/><path d="M 549.17 292.89 A 36.61 36.61 0 0 0 585.78 256.28 L 549.17 256.28" fill="#ffc3d2"/><rect x="585.7777777777778" y="219.66666666666669" width="73.22222222222223" height="73.22222222222223" fill="#ffffff"/><rect x="585.78" y="219.67" width="36.61" height="36.61" fill="#38a6e2"/><circle cx="604.0849999999999" cy="237.975" r="18.305" fill="#34e53f"/><rect x="622.39" y="219.67" width="36.61" height="36.61" fill="#89f090"/><rect x="622.39" y="219.67" width="36.61" height="36.61" fill="#ffd4de"/><rect x="585.78" y="256.28" width="36.61" height="36.61" fill="#33a4e2"/><circle cx="604.0849999999999" cy="274.585" r="18.305" fill="#a6f4ab"/><rect x="622.39" y="256.28" width="36.61" height="36.61" fill="#ffebef"/><rect x="622.39" y="256.28" width="36.61" height="36.61" fill="#ffe2e9"/><rect x="659" y="219.66666666666669" width="73.22222222222223" height="73.22222222222223" fill="#ffffff"/><rect x="659" y="219.67" width="36.61" height="36.61" fill="#ebf6fc"/><path d="M 659 219.67 A 36.61 36.61 0 0 1 695.61 256.28 L 659 256.28" fill="#6eed76"/><rect x="695.61" y="219.67" width="36.61" height="36.61" fill="#ffcfdb"/><path d="M 695.61 256.28 A 36.61 36.61 0 0 1  732.22 219.67 L 732.22 256.28" fill="#2ce538"/><rect x="659" y="256.28" width="36.61" height="36.61" fill="#54b3e6"/><path d="M 659 292.89 A 36.61 36.61 0 0 0 695.61 256.28 L 659 256.28" fill="#f0fdf1"/><rect x="695.61" y="256.28" width="36.61" height="36.61" fill="#ff3c6a"/><path d="M 695.61 256.28 A 36.61 36.61 0 0 0 732.22 292.89 L 732.22 256.28" fill="#ffbfce"/><rect x="732.22" y="219.67" width="73.22" height="73.22" fill="#66bbe9"/><polygon points="732.22,219.67 805.44,292.89 732.22,292.89" fill="#46ade5"/><rect x="805.4444444444446" y="219.66666666666669" width="73.22222222222223" height="73.22222222222223" fill="#ffffff"/><rect x="805.44" y="219.67" width="36.61" height="36.61" fill="#d2ebf9"/><path d="M 805.44 219.67 A 36.61 36.61 0 0 0 842.0500000000001 256.28 L 842.0500000000001 219.67" fill="#ffb0c3"/><rect x="842.06" y="219.67" width="36.61" height="36.61" fill="#eaf6fc"/><path d="M 842.06 256.28 A 36.61 36.61 0 0 0 878.67 219.67 L 842.06 219.67" fill="#5feb68"/><rect x="805.44" y="256.28" width="36.61" height="36.61" fill="#63bae9"/><path d="M 805.44 292.89 A 36.61 36.61 0 0 1  842.0500000000001 256.28 L 842.0500000000001 292.89" fill="#24e431"/><rect x="842.06" y="256.28" width="36.61" height="36.61" fill="#56b4e7"/><path d="M 842.06 256.28 A 36.61 36.61 0 0 1 878.67 292.89 L 842.06 292.89" fill="#fff7f9"/><rect x="878.67" y="219.67" width="73.22" height="73.22" fill="#4de957"/><rect x="878.67" y="219.67" width="73.22" height="73.22" fill="#fffafb"/><rect x="951.89" y="219.67" width="73.22" height="73.22" fill="#fbfdfe"/><polygon points="951.89,219.67 1025.11,219.67 951.89,292.89" fill="#ff577f"/><rect x="1025.11" y="219.67" width="73.22" height="73.22" fill="#ff89a5"/><path d="M 1025.11 292.89 A 73.22 73.22 0 0 0 1098.33 219.67 L 1025.11 219.67" fill="#fff8fa"/><rect x="1098.3333333333335" y="219.66666666666669" width="73.22222222222223" height="73.22222222222223" fill="#ffffff"/><rect x="1098.33" y="219.67" width="36.61" height="36.61" fill="#ffe1e8"/><circle cx="1116.635" cy="237.975" r="18.305" fill="#ffc8d5"/><rect x="1134.94" y="219.67" width="36.61" height="36.61" fill="#fff0f4"/><rect x="1134.94" y="219.67" width="36.61" height="36.61" fill="#eff8fd"/><rect x="1098.33" y="256.28" width="36.61" height="36.61" fill="#ffa3b9"/><circle cx="1116.635" cy="274.585" r="18.305" fill="#f0fdf1"/><rect x="1134.94" y="256.28" width="36.61" height="36.61" fill="#67ec6f"/><rect x="1134.94" y="256.28" width="36.61" height="36.61" fill="#8ef194"/><rect x="1171.5555555555557" y="219.66666666666669" width="73.22222222222223" height="73.22222222222223" fill="#ffffff"/><rect x="1171.56" y="219.67" width="36.61" height="36.61" fill="#31a3e1"/><path d="M 1171.56 256.28 A 36.61 36.61 0 0 1 1208.1699999999998 219.67 L 1208.1699999999998 228.8225 A 27.4575 27.4575 0 0 0 1180.7124999999999 256.28" fill="#80ef87"/><rect x="1208.17" y="219.67" width="36.61" height="36.61" fill="#7fc6ed"/><path d="M 1208.17 219.67 A 36.61 36.61 0 0 1 1244.78 256.28 L 1235.6275 256.28 A 27.4575 27.4575 0 0 0 1208.17 228.8225" fill="#ff3b69"/><rect x="1171.56" y="256.28" width="36.61" height="36.61" fill="#fefeff"/><path d="M 1171.56 256.28 A 36.61 36.61 0 0 0 1208.1699999999998 292.89 L 1208.1699999999998 283.73749999999995 A 27.4575 27.4575 0 0 1 1180.7124999999999 256.28" fill="#ff577f"/><rect x="1208.17" y="256.28" width="36.61" height="36.61" fill="#c1e4f6"/><path d="M 1208.17 292.89 A 36.61 36.61 0 0 0 1244.78 256.28 L 1235.6275 256.28 A 27.4575 27.4575 0 0 1 1208.17 283.73749999999995" fill="#b2f5b6"/><rect x="0" y="292.8888888888889" width="73.22222222222223" height="73.22222222222223" fill="#ffffff"/><rect x="0" y="292.89" width="36.61" height="36.61" fill="#9ef3a3"/><polygon points="36.61,292.89 36.61,329.5 0,329.5" fill="#26e432"/><rect x="36.61" y="292.89" width="36.61" height="36.61" fill="#ffe4ea"/><polygon points="36.61,292.89 73.22,292.89 36.61,329.5" fill="#feffff"/><rect x="0" y="329.5" width="36.61" height="36.61" fill="#3ea9e3"/><polygon points="0,329.5 36.61,329.5 36.61,366.11" fill="#ffecf1"/><rect x="36.61" y="329.5" width="36.61" height="36.61" fill="#ff99b2"/><polygon points="36.61,329.5 73.22,366.11 36.61,366.11" fill="#ff3867"/><rect x="73.22" y="292.89" width="73.22" height="73.22" fill="#66bbe9"/><path d="M 73.22 366.11 A 73.22 73.22 0 0 1  146.44 292.89 L 73.22 366.11 A 73.22 73.22 0 0 0 146.44 292.89" fill="#fff8fa"/><rect x="146.44444444444446" y="292.8888888888889" width="73.22222222222223" height="73.22222222222223" fill="#ffffff"/><rect x="146.44" y="292.89" width="36.61" height="36.61" fill="#76c2eb"/><path d="M 146.44 292.89 A 36.61 36.61 0 0 0 183.05 329.5 L 183.05 292.89" fill="#d5ecf9"/><rect x="183.06" y="292.89" width="36.61" height="36.61" fill="#ff678b"/><path d="M 183.06 329.5 A 36.61 36.61 0 0 0 219.67000000000002 292.89 L 183.06 292.89" fill="#ffaabe"/><rect x="146.44" y="329.5" width="36.61" height="36.61" fill="#90f197"/><path d="M 146.44 366.11 A 36.61 36.61 0 0 1  183.05 329.5 L 183.05 366.11" fill="#ff668a"/><rect x="183.06" y="329.5" width="36.61" height="36.61" fill="#ff6f91"/><path d="M 183.06 329.5 A 36.61 36.61 0 0 1 219.67000000000002 366.11 L 183.06 366.11" fill="#ff3b6a"/><rect x="219.66666666666669" y="292.8888888888889" width="73.22222222222223" height="73.22222222222223" fill="#ffffff"/><rect x="219.67" y="292.89" width="36.61" height="36.61" fill="#c8f8cb"/><path d="M 219.67 329.5 A 36.61 36.61 0 0 1  256.28 292.89 L 256.28 329.5" fill="#57b4e7"/><rect x="256.28" y="292.89" width="36.61" height="36.61" fill="#ffcad7"/><path d="M 256.28 292.89 A 36.61 36.61 0 0 1 292.89 329.5 L 256.28 329.5" fill="#64bae9"/><rect x="219.67" y="329.5" width="36.61" height="36.61" fill="#ffb5c6"/><path d="M 219.67 329.5 A 36.61 36.61 0 0 0 256.28 366.11 L 256.28 329.5" fill="#b1f5b5"/><rect x="256.28" y="329.5" width="36.61" height="36.61" fill="#ffb7c8"/><path d="M 256.28 366.11 A 36.61 36.61 0 0 0 292.89 329.5 L 256.28 329.5" fill="#4de957"/><rect x="292.8888888888889" y="292.8888888888889" width="73.22222222222223" height="73.22222222222223" fill="#ffffff"/><rect x="292.89" y="292.89" width="36.61" height="36.61" fill="#ff7495"/><path d="M 292.89 329.5 A 36.61 36.61 0 0 1  329.5 292.89 L 329.5 329.5" fill="#9fd4f1"/><rect x="329.5" y="292.89" width="36.61" height="36.61" fill="#ffdce5"/><path d="M 329.5 292.89 A 36.61 36.61 0 0 1 366.11 329.5 L 329.5 329.5" fill="#ffb7c8"/><rect x="292.89" y="329.5" width="36.61" height="36.61" fill="#ff9eb5"/><path d="M 292.89 329.5 A 36.61 36.61 0 0 0 329.5 366.11 L 329.5 329.5" fill="#bce1f5"/><rect x="329.5" y="329.5" width="36.61" height="36.61" fill="#7fc6ed"/><path d="M 329.5 366.11 A 36.61 36.61 0 0 0 366.11 329.5 L 329.5 329.5" fill="#ffc0cf"/><rect x="366.11111111111114" y="292.8888888888889" width="73.22222222222223" height="73.22222222222223" fill="#ffffff"/><rect x="366.11" y="292.89" width="36.61" height="36.61" fill="#bcf7c0"/><path d="M 366.11 329.5 A 36.61 36.61 0 0 0 402.72 292.89 L 366.11 292.89" fill="#ffebf0"/><rect x="402.72" y="292.89" width="36.61" height="36.61" fill="#76ee7d"/><path d="M 402.72 292.89 A 36.61 36.61 0 0 0 439.33000000000004 329.5 L 439.33000000000004 292.89" fill="#ff8aa6"/><rect x="366.11" y="329.5" width="36.61" height="36.61" fill="#a5d7f2"/><path d="M 366.11 329.5 A 36.61 36.61 0 0 1 402.72 366.11 L 366.11 366.11" fill="#ff7d9c"/><rect x="402.72" y="329.5" width="36.61" height="36.61" fill="#2fe53a"/><path d="M 402.72 366.11 A 36.61 36.61 0 0 1  439.33000000000004 329.5 L 439.33000000000004 366.11" fill="#ffdde5"/><rect x="439.33333333333337" y="292.8888888888889" width="73.22222222222223" height="73.22222222222223" fill="#ffffff"/><rect x="439.33" y="292.89" width="36.61" height="36.61" fill="#8cf193"/><path d="M 439.33 329.5 A 36.61 36.61 0 0 1  475.94 292.89 L 475.94 329.5" fill="#b5def4"/><rect x="475.94" y="292.89" width="36.61" height="36.61" fill="#ffa0b7"/><path d="M 475.94 292.89 A 36.61 36.61 0 0 1 512.55 329.5 L 475.94 329.5" fill="#ff4974"/><rect x="439.33" y="329.5" width="36.61" height="36.61" fill="#ffb6c8"/><path d="M 439.33 329.5 A 36.61 36.61 0 0 0 475.94 366.11 L 475.94 329.5" fill="#fffcfd"/><rect x="475.94" y="329.5" width="36.61" height="36.61" fill="#e0f1fb"/><path d="M 475.94 366.11 A 36.61 36.61 0 0 0 512.55 329.5 L 475.94 329.5" fill="#ff7092"/><rect x="512.56" y="292.89" width="73.22" height="73.22" fill="#6ebfea"/><polygon points="585.78,292.89 585.78,366.11 512.56,366.11" fill="#ffc0cf"/><rect x="585.78" y="292.89" width="73.22" height="73.22" fill="#6ced74"/><path d="M 585.78 292.89 A 73.22 73.22 0 0 0 659 366.11 L 659 292.89" fill="#ff819f"/><rect x="659" y="292.89" width="73.22" height="73.22" fill="#ff7092"/><polygon points="659,292.89 732.22,292.89 659,366.11" fill="#b5def4"/><rect x="732.22" y="292.89" width="73.22" height="73.22" fill="#ff3767"/><rect x="732.22" y="292.89" width="73.22" height="73.22" fill="#fdfffd"/><rect x="805.44" y="292.89" width="73.22" height="73.22" fill="#ff85a2"/><polygon points="805.44,292.89 878.6600000000001,292.89 878.6600000000001,366.11" fill="#ff6a8d"/><rect x="878.67" y="292.89" width="73.22" height="73.22" fill="#2ca2e1"/><rect x="878.67" y="292.89" width="73.22" height="73.22" fill="#6cbeea"/><rect x="951.8888888888889" y="292.8888888888889" width="73.22222222222223" height="73.22222222222223" fill="#ffffff"/><rect x="951.89" y="292.89" width="36.61" height="36.61" fill="#82c8ed"/><circle cx="970.1949999999999" cy="311.195" r="18.305" fill="#52e95c"/><rect x="988.5" y="292.89" width="36.61" height="36.61" fill="#ffa7bc"/><rect x="988.5" y="292.89" width="36.61" height="36.61" fill="#ffdce4"/><rect x="951.89" y="329.5" width="36.61" height="36.61" fill="#ffafc2"/><circle cx="970.1949999999999" cy="347.805" r="18.305" fill="#f6fef6"/><rect x="988.5" y="329.5" width="36.61" height="36.61" fill="#62b9e8"/><rect x="988.5" y="329.5" width="36.61" height="36.61" fill="#ffdbe4"/><rect x="1025.11" y="292.89" width="73.22" height="73.22" fill="#fff9fa"/><polygon points="1025.11,292.89 1098.33,292.89 1098.33,366.11" fill="#d6fad8"/><rect x="1098.3333333333335" y="292.8888888888889" width="73.22222222222223" height="73.22222222222223" fill="#ffffff"/><rect x="1098.33" y="292.89" width="36.61" height="36.61" fill="#51b2e6"/><polygon points="1134.9399999999998,292.89 1134.9399999999998,329.5 1098.33,329.5" fill="#54e95d"/><rect x="1134.94" y="292.89" width="36.61" height="36.61" fill="#ff7092"/><polygon points="1134.94,292.89 1171.55,329.5 1134.94,329.5" fill="#92cfef"/><rect x="1098.33" y="329.5" width="36.61" height="36.61" fill="#cce9f8"/><polygon points="1098.33,329.5 1134.9399999999998,329.5 1098.33,366.11" fill="#ff819f"/><rect x="1134.94" y="329.5" width="36.61" height="36.61" fill="#ff658a"/><polygon points="1134.94,329.5 1171.55,329.5 1171.55,366.11" fill="#ff5980"/><rect x="1171.5555555555557" y="292.8888888888889" width="73.22222222222223" height="73.22222222222223" fill="#ffffff"/><rect x="1171.56" y="292.89" width="36.61" height="36.61" fill="#ff6186"/><polygon points="1208.1699999999998,292.89 1208.1699999999998,329.5 1171.56,329.5" fill="#269fe0"/><rect x="1208.17" y="292.89" width="36.61" height="36.61" fill="#ffe5eb"/><polygon points="1208.17,292.89 1244.78,329.5 1208.17,329.5" fill="#ff3968"/><rect x="1171.56" y="329.5" width="36.61" height="36.61" fill="#fff0f3"/><polygon points="1171.56,329.5 1208.1699999999998,329.5 1208.1699999999998,366.11" fill="#ffeaef"/><rect x="1208.17" y="329.5" width="36.61" height="36.61" fill="#fefffe"/><polygon points="1208.17,329.5 1244.78,329.5 1208.17,366.11" fill="#97f29d"/><rect x="0" y="366.11111111111114" width="73.22222222222223" height="73.22222222222223" fill="#ffffff"/><rect x="0" y="366.11" width="36.61" height="36.61" fill="#6ced74"/><polygon points="36.61,366.11 36.61,402.72 0,402.72" fill="#1ae226"/><rect x="36.61" y="366.11" width="36.61" height="36.61" fill="#3be646"/><polygon points="36.61,366.11 73.22,402.72 36.61,402.72" fill="#93cfef"/><rect x="0" y="402.72" width="36.61" height="36.61" fill="#e2fbe4"/><polygon points="0,402.72 36.61,402.72 0,439.33000000000004" fill="#3faae3"/><rect x="36.61" y="402.72" width="36.61" height="36.61" fill="#20e32d"/><polygon points="36.61,402.72 73.22,402.72 73.22,439.33000000000004" fill="#d7edf9"/><rect x="73.22" y="366.11" width="73.22" height="73.22" fill="#50b1e6"/><polygon points="146.44,366.11 146.44,439.33000000000004 73.22,439.33000000000004" fill="#ff6388"/><rect x="146.44" y="366.11" width="73.22" height="73.22" fill="#fff8fa"/><rect x="146.44" y="366.11" width="73.22" height="73.22" fill="#fdfeff"/><rect x="219.66666666666669" y="366.11111111111114" width="73.22222222222223" height="73.22222222222223" fill="#ffffff"/><rect x="219.67" y="366.11" width="36.61" height="36.61" fill="#bbe1f5"/><path d="M 219.67 366.11 A 36.61 36.61 0 0 1 256.28 402.72 L 219.67 402.72" fill="#42abe4"/><rect x="256.28" y="366.11" width="36.61" height="36.61" fill="#fff5f8"/><path d="M 256.28 402.72 A 36.61 36.61 0 0 1  292.89 366.11 L 292.89 402.72" fill="#ff4874"/><rect x="219.67" y="402.72" width="36.61" height="36.61" fill="#66bbe9"/><path d="M 219.67 439.33000000000004 A 36.61 36.61 0 0 0 256.28 402.72 L 219.67 402.72" fill="#c0f7c4"/><rect x="256.28" y="402.72" width="36.61" height="36.61" fill="#ff4873"/><path d="M 256.28 402.72 A 36.61 36.61 0 0 0 292.89 439.33000000000004 L 292.89 402.72" fill="#ccf9cf"/><rect x="292.8888888888889" y="366.11111111111114" width="73.22222222222223" height="73.22222222222223" fill="#ffffff"/><rect x="292.89" y="366.11" width="36.61" height="36.61" fill="#caf8cd"/><circle cx="311.195" cy="384.415" r="18.305" fill="#e5f3fb"/><rect x="329.5" y="366.11" width="36.61" height="36.61" fill="#a2f3a7"/><rect x="329.5" y="366.11" width="36.61" height="36.61" fill="#ff819f"/><rect x="292.89" y="402.72" width="36.61" height="36.61" fill="#ffcbd8"/><circle cx="311.195" cy="421.02500000000003" r="18.305" fill="#219cdf"/><rect x="329.5" y="402.72" width="36.61" height="36.61" fill="#c8f8cb"/><rect x="329.5" y="402.72" width="36.61" height="36.61" fill="#ff7898"/><rect x="366.11111111111114" y="366.11111111111114" width="73.22222222222223" height="73.22222222222223" fill="#ffffff"/><rect x="366.11" y="366.11" width="36.61" height="36.61" fill="#27e434"/><circle cx="384.415" cy="384.415" r="18.305" fill="#82ef89"/><rect x="402.72" y="366.11" width="36.61" height="36.61" fill="#fff4f6"/><rect x="402.72" y="366.11" width="36.61" height="36.61" fill="#4ae854"/><rect x="366.11" y="402.72" width="36.61" height="36.61" fill="#3be646"/><circle cx="384.415" cy="421.02500000000003" r="18.305" fill="#c3f7c7"/><rect x="402.72" y="402.72" width="36.61" height="36.61" fill="#50b1e6"/><rect x="402.72" y="402.72" width="36.61" height="36.61" fill="#e0f1fb"/><rect x="439.33333333333337" y="366.11111111111114" width="73.22222222222223" height="73.22222222222223" fill="#ffffff"/><rect x="439.33" y="366.11" width="36.61" height="36.61" fill="#e1fbe2"/><path d="M 439.33 366.11 A 36.61 36.61 0 0 1 475.94 402.72 L 439.33 402.72" fill="#a6d7f2"/><rect x="475.94" y="366.11" width="36.61" height="36.61" fill="#ff4471"/><path d="M 475.94 402.72 A 36.61 36.61 0 0 1  512.55 366.11 L 512.55 402.72" fill="#d0f9d3"/><rect x="439.33" y="402.72" width="36.61" height="36.61" fill="#ff517b"/><path d="M 439.33 439.33000000000004 A 36.61 36.61 0 0 0 475.94 402.72 L 439.33 402.72" fill="#b1dcf4"/><rect x="475.94" y="402.72" width="36.61" height="36.61" fill="#fff0f4"/><path d="M 475.94 402.72 A 36.61 36.61 0 0 0 512.55 439.33000000000004 L 512.55 402.72" fill="#33e53e"/><rect x="512.5555555555557" y="366.11111111111114" width="73.22222222222223" height="73.22222222222223" fill="#ffffff"/><rect x="512.56" y="366.11" width="36.61" height="36.61" fill="#ff9cb3"/><path d="M 512.56 402.72 A 36.61 36.61 0 0 1  549.17 366.11 L 549.17 402.72" fill="#ff84a2"/><rect x="549.17" y="366.11" width="36.61" height="36.61" fill="#ff3666"/><path d="M 549.17 366.11 A 36.61 36.61 0 0 1 585.78 402.72 L 549.17 402.72" fill="#ffa8bd"/><rect x="512.56" y="402.72" width="36.61" height="36.61" fill="#42e74d"/><path d="M 512.56 402.72 A 36.61 36.61 0 0 0 549.17 439.33000000000004 L 549.17 402.72" fill="#ffdde5"/><rect x="549.17" y="402.72" width="36.61" height="36.61" fill="#f0f8fd"/><path d="M 549.17 439.33000000000004 A 36.61 36.61 0 0 0 585.78 402.72 L 549.17 402.72" fill="#ff7394"/><rect x="585.7777777777778" y="366.11111111111114" width="73.22222222222223" height="73.22222222222223" fill="#ffffff"/><rect x="585.78" y="366.11" width="36.61" height="36.61" fill="#4ee958"/><path d="M 585.78 402.72 A 36.61 36.61 0 0 0 622.39 366.11 L 585.78 366.11" fill="#ffaabe"/><rect x="622.39" y="366.11" width="36.61" height="36.61" fill="#bef7c2"/><path d="M 622.39 366.11 A 36.61 36.61 0 0 0 659 402.72 L 659 366.11" fill="#ff7e9d"/><rect x="585.78" y="402.72" width="36.61" height="36.61" fill="#a5f4aa"/><path d="M 585.78 402.72 A 36.61 36.61 0 0 1 622.39 439.33000000000004 L 585.78 439.33000000000004" fill="#f3fafd"/><rect x="622.39" y="402.72" width="36.61" height="36.61" fill="#ffd2dd"/><path d="M 622.39 439.33000000000004 A 36.61 36.61 0 0 1  659 402.72 L 659 439.33000000000004" fill="#ffb4c6"/><rect x="659" y="366.11111111111114" width="73.22222222222223" height="73.22222222222223" fill="#ffffff"/><rect x="659" y="366.11" width="36.61" height="36.61" fill="#c1e4f6"/><path d="M 659 366.11 A 36.61 36.61 0 0 1 695.61 402.72 L 659 402.72" fill="#2ba1e1"/><rect x="695.61" y="366.11" width="36.61" height="36.61" fill="#ff7495"/><path d="M 695.61 402.72 A 36.61 36.61 0 0 1  732.22 366.11 L 732.22 402.72" fill="#3ba8e3"/><rect x="659" y="402.72" width="36.61" height="36.61" fill="#ff6f91"/><path d="M 659 439.33000000000004 A 36.61 36.61 0 0 0 695.61 402.72 L 659 402.72" fill="#ff9fb5"/><rect x="695.61" y="402.72" width="36.61" height="36.61" fill="#fff2f5"/><path d="M 695.61 402.72 A 36.61 36.61 0 0 0 732.22 439.33000000000004 L 732.22 402.72" fill="#ff6589"/><rect x="732.2222222222223" y="366.11111111111114" width="73.22222222222223" height="73.22222222222223" fill="#ffffff"/><rect x="732.22" y="366.11" width="36.61" height="36.61" fill="#d3ecf9"/><path d="M 732.22 402.72 A 36.61 36.61 0 0 1 768.83 366.11 L 768.83 375.2625 A 27.4575 27.4575 0 0 0 741.3725000000001 402.72" fill="#c9e7f7"/><rect x="768.83" y="366.11" width="36.61" height="36.61" fill="#fffafb"/><path d="M 768.83 366.11 A 36.61 36.61 0 0 1 805.44 402.72 L 796.2875 402.72 A 27.4575 27.4575 0 0 0 768.83 375.2625" fill="#47e851"/><rect x="732.22" y="402.72" width="36.61" height="36.61" fill="#ff7595"/><path d="M 732.22 402.72 A 36.61 36.61 0 0 0 768.83 439.33000000000004 L 768.83 430.1775 A 27.4575 27.4575 0 0 1 741.3725000000001 402.72" fill="#ff9fb6"/><rect x="768.83" y="402.72" width="36.61" height="36.61" fill="#36a6e2"/><path d="M 768.83 439.33000000000004 A 36.61 36.61 0 0 0 805.44 402.72 L 796.2875 402.72 A 27.4575 27.4575 0 0 1 768.83 430.1775" fill="#26e433"/><rect x="805.44" y="366.11" width="73.22" height="73.22" fill="#93f199"/><path d="M 805.44 366.11 A 73.22 73.22 0 0 0 878.6600000000001 439.33000000000004 L 878.6600000000001 366.11" fill="#ecf7fc"/><rect x="878.67" y="366.11" width="73.22" height="73.22" fill="#a2f3a7"/><rect x="878.67" y="366.11" width="73.22" height="73.22" fill="#bbe1f5"/><rect x="951.89" y="366.11" width="73.22" height="73.22" fill="#7ac4ec"/><path d="M 951.89 366.11 A 73.22 73.22 0 0 0 1025.11 439.33000000000004 L 1025.11 366.11" fill="#bce1f5"/><rect x="1025.1111111111113" y="366.11111111111114" width="73.22222222222223" height="73.22222222222223" fill="#ffffff"/><rect x="1025.11" y="366.11" width="36.61" height="36.61" fill="#ff7898"/><path d="M 1025.11 366.11 A 36.61 36.61 0 0 0 1061.7199999999998 402.72 L 1061.7199999999998 366.11" fill="#ff5980"/><rect x="1061.72" y="366.11" width="36.61" height="36.61" fill="#e5fce7"/><path d="M 1061.72 402.72 A 36.61 36.61 0 0 0 1098.33 366.11 L 1061.72 366.11" fill="#70bfea"/><rect x="1025.11" y="402.72" width="36.61" height="36.61" fill="#fff1f5"/><path d="M 1025.11 439.33000000000004 A 36.61 36.61 0 0 1  1061.7199999999998 402.72 L 1061.7199999999998 439.33000000000004" fill="#ff98b0"/><rect x="1061.72" y="402.72" width="36.61" height="36.61" fill="#e2f2fb"/><path d="M 1061.72 402.72 A 36.61 36.61 0 0 1 1098.33 439.33000000000004 L 1061.72 439.33000000000004" fill="#9bf3a1"/><rect x="1098.33" y="366.11" width="73.22" height="73.22" fill="#ff95ae"/><path d="M 1098.33 439.33000000000004 A 73.22 73.22 0 0 1  1171.55 366.11 L 1171.55 439.33000000000004" fill="#bff7c3"/><rect x="1171.56" y="366.11" width="73.22" height="73.22" fill="#4aaee5"/><rect x="1171.56" y="366.11" width="73.22" height="73.22" fill="#ff99b1"/><rect x="0" y="439.33333333333337" width="73.22222222222223" height="73.22222222222223" fill="#ffffff"/><rect x="0" y="439.33" width="36.61" height="36.61" fill="#44ace4"/><polygon points="36.61,439.33 36.61,475.94 0,475.94" fill="#ffd3dd"/><rect x="36.61" y="439.33" width="36.61" height="36.61" fill="#41aae4"/><polygon points="36.61,439.33 73.22,475.94 36.61,475.94" fill="#91ceef"/><rect x="0" y="475.94" width="36.61" height="36.61" fill="#46ade4"/><polygon points="0,475.94 36.61,475.94 36.61,512.55" fill="#ffc5d3"/><rect x="36.61" y="475.94" width="36.61" height="36.61" fill="#46ade4"/><polygon points="36.61,475.94 73.22,475.94 36.61,512.55" fill="#8df193"/><rect x="73.22" y="439.33" width="73.22" height="73.22" fill="#a5f4aa"/><rect x="73.22" y="439.33" width="73.22" height="73.22" fill="#fff2f5"/><rect x="146.44" y="439.33" width="73.22" height="73.22" fill="#ff7798"/><polygon points="146.44,439.33 219.66,512.55 146.44,512.55" fill="#96f29c"/><rect x="219.67" y="439.33" width="73.22" height="73.22" fill="#ff7596"/><rect x="219.67" y="439.33" width="73.22" height="73.22" fill="#ff4672"/><rect x="292.89" y="439.33" width="73.22" height="73.22" fill="#4aaee5"/><polygon points="292.89,439.33 366.11,439.33 366.11,512.55" fill="#36a6e2"/><rect x="366.11" y="439.33" width="73.22" height="73.22" fill="#68bce9"/><path d="M 366.11 512.55 A 73.22 73.22 0 0 1  439.33000000000004 439.33 L 439.33000000000004 512.55" fill="#ff7696"/><rect x="439.33333333333337" y="439.33333333333337" width="73.22222222222223" height="73.22222222222223" fill="#ffffff"/><rect x="439.33" y="439.33" width="36.61" height="36.61" fill="#ff9ab2"/><path d="M 439.33 475.94 A 36.61 36.61 0 0 1  475.94 439.33 L 475.94 475.94" fill="#29a0e0"/><rect x="475.94" y="439.33" width="36.61" height="36.61" fill="#e4fce5"/><path d="M 475.94 439.33 A 36.61 36.61 0 0 1 512.55 475.94 L 475.94 475.94" fill="#95d0f0"/><rect x="439.33" y="475.94" width="36.61" height="36.61" fill="#5feb68"/><path d="M 439.33 475.94 A 36.61 36.61 0 0 0 475.94 512.55 L 475.94 475.94" fill="#87caee"/><rect x="475.94" y="475.94" width="36.61" height="36.61" fill="#3da9e3"/><path d="M 475.94 512.55 A 36.61 36.61 0 0 0 512.55 475.94 L 475.94 475.94" fill="#70ed78"/><rect x="512.56" y="439.33" width="73.22" height="73.22" fill="#ff567e"/><rect x="512.56" y="439.33" width="73.22" height="73.22" fill="#69ec71"/><rect x="585.7777777777778" y="439.33333333333337" width="73.22222222222223" height="73.22222222222223" fill="#ffffff"/><rect x="585.78" y="439.33" width="36.61" height="36.61" fill="#34e53f"/><path d="M 585.78 475.94 A 36.61 36.61 0 0 0 622.39 439.33 L 585.78 439.33" fill="#4de957"/><rect x="622.39" y="439.33" width="36.61" height="36.61" fill="#d9eefa"/><path d="M 622.39 439.33 A 36.61 36.61 0 0 0 659 475.94 L 659 439.33" fill="#ff3968"/><rect x="585.78" y="475.94" width="36.61" height="36.61" fill="#ffe7ed"/><path d="M 585.78 475.94 A 36.61 36.61 0 0 1 622.39 512.55 L 585.78 512.55" fill="#44e84e"/><rect x="622.39" y="475.94" width="36.61" height="36.61" fill="#ffecf1"/><path d="M 622.39 512.55 A 36.61 36.61 0 0 1  659 475.94 L 659 512.55" fill="#91ceef"/><rect x="659" y="439.33" width="73.22" height="73.22" fill="#eafceb"/><polygon points="659,439.33 732.22,439.33 732.22,512.55" fill="#4be855"/><rect x="732.22" y="439.33" width="73.22" height="73.22" fill="#e9f5fc"/><polygon points="732.22,439.33 805.44,439.33 805.44,512.55" fill="#acf5b0"/><rect x="805.4444444444446" y="439.33333333333337" width="73.22222222222223" height="73.22222222222223" fill="#ffffff"/><rect x="805.44" y="439.33" width="36.61" height="36.61" fill="#47ade5"/><polygon points="842.0500000000001,439.33 842.0500000000001,475.94 805.44,475.94" fill="#ffaabe"/><rect x="842.06" y="439.33" width="36.61" height="36.61" fill="#9ed4f1"/><polygon points="842.06,439.33 878.67,475.94 842.06,475.94" fill="#a5f4aa"/><rect x="805.44" y="475.94" width="36.61" height="36.61" fill="#f5fef6"/><polygon points="805.44,475.94 842.0500000000001,475.94 805.44,512.55" fill="#ffcad6"/><rect x="842.06" y="475.94" width="36.61" height="36.61" fill="#4ae854"/><polygon points="842.06,475.94 878.67,475.94 878.67,512.55" fill="#51b2e6"/><rect x="878.67" y="439.33" width="73.22" height="73.22" fill="#ff96af"/><rect x="878.67" y="439.33" width="73.22" height="73.22" fill="#d0f9d2"/><rect x="951.89" y="439.33" width="73.22" height="73.22" fill="#6ebfea"/><rect x="951.89" y="439.33" width="73.22" height="73.22" fill="#2fa3e1"/><rect x="1025.1111111111113" y="439.33333333333337" width="73.22222222222223" height="73.22222222222223" fill="#ffffff"/><rect x="1025.11" y="439.33" width="36.61" height="36.61" fill="#e8f5fc"/><polygon points="1061.7199999999998,439.33 1061.7199999999998,475.94 1025.11,475.94" fill="#b8e0f5"/><rect x="1061.72" y="439.33" width="36.61" height="36.61" fill="#28e434"/><polygon points="1061.72,439.33 1098.33,439.33 1061.72,475.94" fill="#eafceb"/><rect x="1025.11" y="475.94" width="36.61" height="36.61" fill="#1ce229"/><polygon points="1025.11,475.94 1061.7199999999998,475.94 1061.7199999999998,512.55" fill="#e3fbe4"/><rect x="1061.72" y="475.94" width="36.61" height="36.61" fill="#249ee0"/><polygon points="1061.72,475.94 1098.33,512.55 1061.72,512.55" fill="#58ea61"/><rect x="1098.3333333333335" y="439.33333333333337" width="73.22222222222223" height="73.22222222222223" fill="#ffffff"/><rect x="1098.33" y="439.33" width="36.61" height="36.61" fill="#feffff"/><circle cx="1116.635" cy="457.635" r="18.305" fill="#99f29f"/><rect x="1134.94" y="439.33" width="36.61" height="36.61" fill="#ffe5eb"/><rect x="1134.94" y="439.33" width="36.61" height="36.61" fill="#ffffff"/><rect x="1098.33" y="475.94" width="36.61" height="36.61" fill="#ffacc0"/><circle cx="1116.635" cy="494.245" r="18.305" fill="#85f08c"/><rect x="1134.94" y="475.94" width="36.61" height="36.61" fill="#c7e6f7"/><rect x="1134.94" y="475.94" width="36.61" height="36.61" fill="#45e850"/><rect x="1171.56" y="439.33" width="73.22" height="73.22" fill="#d0eaf8"/><polygon points="1171.56,439.33 1244.78,439.33 1171.56,512.55" fill="#ff7394"/><rect x="0" y="512.56" width="73.22" height="73.22" fill="#ff9cb4"/><polygon points="0,512.56 73.22,585.78 0,585.78" fill="#ffe6ec"/><rect x="73.22" y="512.56" width="73.22" height="73.22" fill="#ffc0cf"/><path d="M 73.22 512.56 A 73.22 73.22 0 0 1 146.44 585.78 L 73.22 585.78" fill="#2aa0e0"/><rect x="146.44" y="512.56" width="73.22" height="73.22" fill="#29e435"/><path d="M 146.44 585.78 A 73.22 73.22 0 0 1  219.66 512.56 L 219.66 585.78" fill="#edf7fc"/><rect x="219.67" y="512.56" width="73.22" height="73.22" fill="#2de539"/><rect x="219.67" y="512.56" width="73.22" height="73.22" fill="#92f198"/><rect x="292.8888888888889" y="512.5555555555557" width="73.22222222222223" height="73.22222222222223" fill="#ffffff"/><rect x="292.89" y="512.56" width="36.61" height="36.61" fill="#dafadc"/><path d="M 292.89 549.17 A 36.61 36.61 0 0 0 329.5 512.56 L 292.89 512.56" fill="#41abe4"/><rect x="329.5" y="512.56" width="36.61" height="36.61" fill="#f3fdf4"/><path d="M 329.5 512.56 A 36.61 36.61 0 0 0 366.11 549.17 L 366.11 512.56" fill="#73ed7b"/><rect x="292.89" y="549.17" width="36.61" height="36.61" fill="#ffb5c6"/><path d="M 292.89 549.17 A 36.61 36.61 0 0 1 329.5 585.78 L 292.89 585.78" fill="#b1dcf4"/><rect x="329.5" y="549.17" width="36.61" height="36.61" fill="#ffceda"/><path d="M 329.5 585.78 A 36.61 36.61 0 0 1  366.11 549.17 L 366.11 585.78" fill="#43ace4"/><rect x="366.11111111111114" y="512.5555555555557" width="73.22222222222223" height="73.22222222222223" fill="#ffffff"/><rect x="366.11" y="512.56" width="36.61" height="36.61" fill="#d9fadb"/><path d="M 366.11 549.17 A 36.61 36.61 0 0 0 402.72 512.56 L 366.11 512.56" fill="#d5fad7"/><rect x="402.72" y="512.56" width="36.61" height="36.61" fill="#ff6c8f"/><path d="M 402.72 512.56 A 36.61 36.61 0 0 0 439.33000000000004 549.17 L 439.33000000000004 512.56" fill="#c7f8ca"/><rect x="366.11" y="549.17" width="36.61" height="36.61" fill="#b7f6bb"/><path d="M 366.11 549.17 A 36.61 36.61 0 0 1 402.72 585.78 L 366.11 585.78" fill="#79c3ec"/><rect x="402.72" y="549.17" width="36.61" height="36.61" fill="#29a0e0"/><path d="M 402.72 585.78 A 36.61 36.61 0 0 1  439.33000000000004 549.17 L 439.33000000000004 585.78" fill="#82c8ed"/><rect x="439.33333333333337" y="512.5555555555557" width="73.22222222222223" height="73.22222222222223" fill="#ffffff"/><rect x="439.33" y="512.56" width="36.61" height="36.61" fill="#86f08d"/><circle cx="457.635" cy="530.8649999999999" r="18.305" fill="#ffdae3"/><rect x="475.94" y="512.56" width="36.61" height="36.61" fill="#7fef86"/><rect x="475.94" y="512.56" width="36.61" height="36.61" fill="#c2e4f6"/><rect x="439.33" y="549.17" width="36.61" height="36.61" fill="#b0f5b4"/><circle cx="457.635" cy="567.4749999999999" r="18.305" fill="#ffc7d4"/><rect x="475.94" y="549.17" width="36.61" height="36.61" fill="#d8fada"/><rect x="475.94" y="549.17" width="36.61" height="36.61" fill="#d6edf9"/><rect x="512.56" y="512.56" width="73.22" height="73.22" fill="#ff507a"/><path d="M 512.56 585.78 A 73.22 73.22 0 0 0 585.78 512.56 L 512.56 512.56" fill="#80ef87"/><rect x="585.78" y="512.56" width="73.22" height="73.22" fill="#25e431"/><polygon points="659,512.56 659,585.78 585.78,585.78" fill="#ffaec1"/><rect x="659" y="512.5555555555557" width="73.22222222222223" height="73.22222222222223" fill="#ffffff"/><rect x="659" y="512.56" width="36.61" height="36.61" fill="#ffe5ec"/><path d="M 659 549.17 A 36.61 36.61 0 0 1 695.61 512.56 L 695.61 521.7125 A 27.4575 27.4575 0 0 0 668.1525 549.17" fill="#fff2f5"/><rect x="695.61" y="512.56" width="36.61" height="36.61" fill="#38a7e2"/><path d="M 695.61 512.56 A 36.61 36.61 0 0 1 732.22 549.17 L 723.0675 549.17 A 27.4575 27.4575 0 0 0 695.61 521.7125" fill="#fbfdfe"/><rect x="659" y="549.17" width="36.61" height="36.61" fill="#ffbccc"/><path d="M 659 549.17 A 36.61 36.61 0 0 0 695.61 585.78 L 695.61 576.6274999999999 A 27.4575 27.4575 0 0 1 668.1525 549.17" fill="#44e84f"/><rect x="695.61" y="549.17" width="36.61" height="36.61" fill="#ffa7bc"/><path d="M 695.61 585.78 A 36.61 36.61 0 0 0 732.22 549.17 L 723.0675 549.17 A 27.4575 27.4575 0 0 1 695.61 576.6274999999999" fill="#ccf9cf"/><rect x="732.2222222222223" y="512.5555555555557" width="73.22222222222223" height="73.22222222222223" fill="#ffffff"/><rect x="732.22" y="512.56" width="36.61" height="36.61" fill="#eafceb"/><polygon points="768.83,512.56 768.83,549.17 732.22,549.17" fill="#ffb1c4"/><rect x="768.83" y="512.56" width="36.61" height="36.61" fill="#ffa3b9"/><polygon points="768.83,512.56 805.44,512.56 768.83,549.17" fill="#ffc1d0"/><rect x="732.22" y="549.17" width="36.61" height="36.61" fill="#e6f4fb"/><polygon points="732.22,549.17 768.83,549.17 768.83,585.78" fill="#ffdce4"/><rect x="768.83" y="549.17" width="36.61" height="36.61" fill="#ff6b8e"/><polygon points="768.83,549.17 805.44,585.78 768.83,585.78" fill="#69ec71"/><rect x="805.4444444444446" y="512.5555555555557" width="73.22222222222223" height="73.22222222222223" fill="#ffffff"/><rect x="805.44" y="512.56" width="36.61" height="36.61" fill="#93cff0"/><path d="M 805.44 549.17 A 36.61 36.61 0 0 1  842.0500000000001 512.56 L 842.0500000000001 549.17" fill="#cff9d2"/><rect x="842.06" y="512.56" width="36.61" height="36.61" fill="#51b2e6"/><path d="M 842.06 512.56 A 36.61 36.61 0 0 1 878.67 549.17 L 842.06 549.17" fill="#b8f6bc"/><rect x="805.44" y="549.17" width="36.61" height="36.61" fill="#ff6c8f"/><path d="M 805.44 549.17 A 36.61 36.61 0 0 0 842.0500000000001 585.78 L 842.0500000000001 549.17" fill="#ffb1c3"/><rect x="842.06" y="549.17" width="36.61" height="36.61" fill="#ffb3c5"/><path d="M 842.06 585.78 A 36.61 36.61 0 0 0 878.67 549.17 L 842.06 549.17" fill="#3ea9e3"/><rect x="878.6666666666667" y="512.5555555555557" width="73.22222222222223" height="73.22222222222223" fill="#ffffff"/><rect x="878.67" y="512.56" width="36.61" height="36.61" fill="#86f08d"/><polygon points="915.28,512.56 915.28,549.17 878.67,549.17" fill="#6fbfea"/><rect x="915.28" y="512.56" width="36.61" height="36.61" fill="#cff9d2"/><polygon points="915.28,512.56 951.89,549.17 915.28,549.17" fill="#ffb8c9"/><rect x="878.67" y="549.17" width="36.61" height="36.61" fill="#60eb69"/><polygon points="878.67,549.17 915.28,549.17 878.67,585.78" fill="#45e84f"/><rect x="915.28" y="549.17" width="36.61" height="36.61" fill="#ffc7d4"/><polygon points="915.28,549.17 951.89,549.17 951.89,585.78" fill="#239ddf"/><rect x="951.89" y="512.56" width="73.22" height="73.22" fill="#2fe53a"/><polygon points="951.89,512.56 1025.11,585.78 951.89,585.78" fill="#8dcdef"/><rect x="1025.1111111111113" y="512.5555555555557" width="73.22222222222223" height="73.22222222222223" fill="#ffffff"/><rect x="1025.11" y="512.56" width="36.61" height="36.61" fill="#63eb6c"/><path d="M 1025.11 512.56 A 36.61 36.61 0 0 0 1061.7199999999998 549.17 L 1061.7199999999998 512.56" fill="#ffc8d5"/><rect x="1061.72" y="512.56" width="36.61" height="36.61" fill="#95d0f0"/><path d="M 1061.72 549.17 A 36.61 36.61 0 0 0 1098.33 512.56 L 1061.72 512.56" fill="#95f29b"/><rect x="1025.11" y="549.17" width="36.61" height="36.61" fill="#ffa9bd"/><path d="M 1025.11 585.78 A 36.61 36.61 0 0 1  1061.7199999999998 549.17 L 1061.7199999999998 585.78" fill="#ffc7d4"/><rect x="1061.72" y="549.17" width="36.61" height="36.61" fill="#ff84a1"/><path d="M 1061.72 549.17 A 36.61 36.61 0 0 1 1098.33 585.78 L 1061.72 585.78" fill="#adf5b1"/><rect x="1098.33" y="512.56" width="73.22" height="73.22" fill="#ffd2dc"/><path d="M 1098.33 512.56 A 73.22 73.22 0 0 1 1171.55 585.78 L 1098.33 585.78" fill="#91f197"/><rect x="1171.56" y="512.56" width="73.22" height="73.22" fill="#e8f5fc"/><path d="M 1171.56 512.56 A 73.22 73.22 0 0 0 1244.78 585.78 L 1244.78 512.56" fill="#25e432"/><rect x="0" y="585.78" width="73.22" height="73.22" fill="#ffe6ec"/><rect x="0" y="585.78" width="73.22" height="73.22" fill="#ffe3ea"/><rect x="73.22" y="585.78" width="73.22" height="73.22" fill="#ff3e6c"/><path d="M 73.22 659 A 73.22 73.22 0 0 1  146.44 585.78 L 73.22 659 A 73.22 73.22 0 0 0 146.44 585.78" fill="#49aee5"/><rect x="146.44444444444446" y="585.7777777777778" width="73.22222222222223" height="73.22222222222223" fill="#ffffff"/><rect x="146.44" y="585.78" width="36.61" height="36.61" fill="#ffb4c6"/><polygon points="183.05,585.78 183.05,622.39 146.44,622.39" fill="#2be437"/><rect x="183.06" y="585.78" width="36.61" height="36.61" fill="#63eb6c"/><polygon points="183.06,585.78 219.67000000000002,622.39 183.06,622.39" fill="#78c3ec"/><rect x="146.44" y="622.39" width="36.61" height="36.61" fill="#ffcbd7"/><polygon points="146.44,622.39 183.05,622.39 146.44,659" fill="#ffa7bc"/><rect x="183.06" y="622.39" width="36.61" height="36.61" fill="#a2d6f2"/><polygon points="183.06,622.39 219.67000000000002,622.39 219.67000000000002,659" fill="#3ce747"/><rect x="219.66666666666669" y="585.7777777777778" width="73.22222222222223" height="73.22222222222223" fill="#ffffff"/><rect x="219.67" y="585.78" width="36.61" height="36.61" fill="#daeffa"/><circle cx="237.975" cy="604.0849999999999" r="18.305" fill="#e0fbe2"/><rect x="256.28" y="585.78" width="36.61" height="36.61" fill="#2ea2e1"/><rect x="256.28" y="585.78" width="36.61" height="36.61" fill="#5deb66"/><rect x="219.67" y="622.39" width="36.61" height="36.61" fill="#ffd7e0"/><circle cx="237.975" cy="640.6949999999999" r="18.305" fill="#2ea2e1"/><rect x="256.28" y="622.39" width="36.61" height="36.61" fill="#ffe8ee"/><rect x="256.28" y="622.39" width="36.61" height="36.61" fill="#ff4873"/><rect x="292.8888888888889" y="585.7777777777778" width="73.22222222222223" height="73.22222222222223" fill="#ffffff"/><rect x="292.89" y="585.78" width="36.61" height="36.61" fill="#c5f8c8"/><path d="M 292.89 622.39 A 36.61 36.61 0 0 0 329.5 585.78 L 292.89 585.78" fill="#32a4e2"/><rect x="329.5" y="585.78" width="36.61" height="36.61" fill="#ff98b0"/><path d="M 329.5 585.78 A 36.61 36.61 0 0 0 366.11 622.39 L 366.11 585.78" fill="#b7f6bb"/><rect x="292.89" y="622.39" width="36.61" height="36.61" fill="#2fe53a"/><path d="M 292.89 622.39 A 36.61 36.61 0 0 1 329.5 659 L 292.89 659" fill="#f1f9fd"/><rect x="329.5" y="622.39" width="36.61" height="36.61" fill="#5ceb65"/><path d="M 329.5 659 A 36.61 36.61 0 0 1  366.11 622.39 L 366.11 659" fill="#ddf0fa"/><rect x="366.11" y="585.78" width="73.22" height="73.22" fill="#3ca8e3"/><polygon points="366.11,585.78 439.33000000000004,585.78 366.11,659" fill="#2ae436"/><rect x="439.33333333333337" y="585.7777777777778" width="73.22222222222223" height="73.22222222222223" fill="#ffffff"/><rect x="439.33" y="585.78" width="36.61" height="36.61" fill="#ff92ac"/><path d="M 439.33 585.78 A 36.61 36.61 0 0 0 475.94 622.39 L 475.94 585.78" fill="#94f29a"/><rect x="475.94" y="585.78" width="36.61" height="36.61" fill="#7dc5ec"/><path d="M 475.94 622.39 A 36.61 36.61 0 0 0 512.55 585.78 L 475.94 585.78" fill="#b0dcf4"/><rect x="439.33" y="622.39" width="36.61" height="36.61" fill="#59ea63"/><path d="M 439.33 659 A 36.61 36.61 0 0 1  475.94 622.39 L 475.94 659" fill="#25e431"/><rect x="475.94" y="622.39" width="36.61" height="36.61" fill="#ff9db4"/><path d="M 475.94 622.39 A 36.61 36.61 0 0 1 512.55 659 L 475.94 659" fill="#e9fcea"/><rect x="512.5555555555557" y="585.7777777777778" width="73.22222222222223" height="73.22222222222223" fill="#ffffff"/><rect x="512.56" y="585.78" width="36.61" height="36.61" fill="#ffc1d0"/><path d="M 512.56 585.78 A 36.61 36.61 0 0 0 549.17 622.39 L 549.17 585.78" fill="#71c0eb"/><rect x="549.17" y="585.78" width="36.61" height="36.61" fill="#e6fce7"/><path d="M 549.17 622.39 A 36.61 36.61 0 0 0 585.78 585.78 L 549.17 585.78" fill="#8bccee"/><rect x="512.56" y="622.39" width="36.61" height="36.61" fill="#27e434"/><path d="M 512.56 659 A 36.61 36.61 0 0 1  549.17 622.39 L 549.17 659" fill="#ff3e6c"/><rect x="549.17" y="622.39" width="36.61" height="36.61" fill="#8fcdef"/><path d="M 549.17 622.39 A 36.61 36.61 0 0 1 585.78 659 L 549.17 659" fill="#ff5c82"/><rect x="585.7777777777778" y="585.7777777777778" width="73.22222222222223" height="73.22222222222223" fill="#ffffff"/><rect x="585.78" y="585.78" width="36.61" height="36.61" fill="#b5def4"/><path d="M 585.78 622.39 A 36.61 36.61 0 0 1 622.39 585.78 L 622.39 594.9325 A 27.4575 27.4575 0 0 0 594.9325 622.39" fill="#ffcbd7"/><rect x="622.39" y="585.78" width="36.61" height="36.61" fill="#ff698d"/><path d="M 622.39 585.78 A 36.61 36.61 0 0 1 659 622.39 L 649.8475 622.39 A 27.4575 27.4575 0 0 0 622.39 594.9325" fill="#ffd5df"/><rect x="585.78" y="622.39" width="36.61" height="36.61" fill="#8ff195"/><path d="M 585.78 622.39 A 36.61 36.61 0 0 0 622.39 659 L 622.39 649.8475 A 27.4575 27.4575 0 0 1 594.9325 622.39" fill="#ff3a69"/><rect x="622.39" y="622.39" width="36.61" height="36.61" fill="#bcf7c0"/><path d="M 622.39 659 A 36.61 36.61 0 0 0 659 622.39 L 649.8475 622.39 A 27.4575 27.4575 0 0 1 622.39 649.8475" fill="#ff9ab2"/><rect x="659" y="585.78" width="73.22" height="73.22" fill="#c0f7c3"/><polygon points="732.22,585.78 732.22,659 659,659" fill="#c5e5f7"/><rect x="732.22" y="585.78" width="73.22" height="73.22" fill="#bee2f6"/><rect x="732.22" y="585.78" width="73.22" height="73.22" fill="#bde2f6"/><rect x="805.44" y="585.78" width="73.22" height="73.22" fill="#ff6589"/><polygon points="878.6600000000001,585.78 878.6600000000001,659 805.44,659" fill="#ffd6e0"/><rect x="878.6666666666667" y="585.7777777777778" width="73.22222222222223" height="73.22222222222223" fill="#ffffff"/><rect x="878.67" y="585.78" width="36.61" height="36.61" fill="#ffb5c7"/><path d="M 878.67 622.39 A 36.61 36.61 0 0 0 915.28 585.78 L 878.67 585.78" fill="#ffa8bc"/><rect x="915.28" y="585.78" width="36.61" height="36.61" fill="#d8fada"/><path d="M 915.28 585.78 A 36.61 36.61 0 0 0 951.89 622.39 L 951.89 585.78" fill="#e7f4fc"/><rect x="878.67" y="622.39" width="36.61" height="36.61" fill="#ff6489"/><path d="M 878.67 622.39 A 36.61 36.61 0 0 1 915.28 659 L 878.67 659" fill="#54e95d"/><rect x="915.28" y="622.39" width="36.61" height="36.61" fill="#d6fad8"/><path d="M 915.28 659 A 36.61 36.61 0 0 1  951.89 622.39 L 951.89 659" fill="#2ea2e1"/><rect x="951.89" y="585.78" width="73.22" height="73.22" fill="#4bafe5"/><rect x="951.89" y="585.78" width="73.22" height="73.22" fill="#ff5e85"/><rect x="1025.1111111111113" y="585.7777777777778" width="73.22222222222223" height="73.22222222222223" fill="#ffffff"/><rect x="1025.11" y="585.78" width="36.61" height="36.61" fill="#95f29b"/><path d="M 1025.11 585.78 A 36.61 36.61 0 0 1 1061.7199999999998 622.39 L 1025.11 622.39" fill="#31e53d"/><rect x="1061.72" y="585.78" width="36.61" height="36.61" fill="#ff3b6a"/><path d="M 1061.72 622.39 A 36.61 36.61 0 0 1  1098.33 585.78 L 1098.33 622.39" fill="#cce8f8"/><rect x="1025.11" y="622.39" width="36.61" height="36.61" fill="#9ad2f1"/><path d="M 1025.11 659 A 36.61 36.61 0 0 0 1061.7199999999998 622.39 L 1025.11 622.39" fill="#f6fbfe"/><rect x="1061.72" y="622.39" width="36.61" height="36.61" fill="#bce1f5"/><path d="M 1061.72 622.39 A 36.61 36.61 0 0 0 1098.33 659 L 1098.33 622.39" fill="#a0d5f1"/><rect x="1098.33" y="585.78" width="73.22" height="73.22" fill="#46ade4"/><polygon points="1098.33,585.78 1171.55,585.78 1171.55,659" fill="#f2f9fd"/><rect x="1171.5555555555557" y="585.7777777777778" width="73.22222222222223" height="73.22222222222223" fill="#ffffff"/><rect x="1171.56" y="585.78" width="36.61" height="36.61" fill="#99d2f0"/><polygon points="1208.1699999999998,585.78 1208.1699999999998,622.39 1171.56,622.39" fill="#d0f9d3"/><rect x="1208.17" y="585.78" width="36.61" height="36.61" fill="#e5fce6"/><polygon points="1208.17,585.78 1244.78,622.39 1208.17,622.39" fill="#99d2f0"/><rect x="1171.56" y="622.39" width="36.61" height="36.61" fill="#ff7999"/><polygon points="1171.56,622.39 1208.1699999999998,622.39 1208.1699999999998,659" fill="#4ae855"/><rect x="1208.17" y="622.39" width="36.61" height="36.61" fill="#d7fad9"/><polygon points="1208.17,622.39 1244.78,622.39 1208.17,659" fill="#50e95a"/></g></svg>