<?xml version="1.0" standalone="no"?><svg xmlns:xlink="http://www.w3.org/1999/xlink" xmlns="http://www.w3.org/2000/svg" viewBox="0 0 1000 529.4122820131738" preserveAspectRatio="xMaxYMax slice"><g transform="scale(0.8794223953707205)"><rect x="0" y="0" width="1137.111111111111" height="602" fill="#475076"/><rect x="0" y="0" width="66.89" height="66.89" fill="#e33968"/><path d="M 0 66.89 A 66.89 66.89 0 0 1  66.89 0 L 66.89 66.89" fill="#22c435"/><rect x="66.89" y="0" width="66.89" height="66.89" fill="#b6406c"/><path d="M 66.89 66.89 A 66.89 66.89 0 0 1  133.78 0 L 133.78 66.89" fill="#405e8a"/><rect x="133.78" y="0" width="66.89" height="66.89" fill="#435881"/><path d="M 133.78 66.89 A 66.89 66.89 0 0 0 200.67000000000002 0 L 133.78 0" fill="#fa3665"/><rect x="200.66666666666666" y="0" width="66.88888888888889" height="66.88888888888889" fill="#475076"/><rect x="200.67" y="0" width="33.44" height="33.44" fill="#94456f"/><path d="M 200.67 33.44 A 33.44 33.44 0 0 0 234.10999999999999 0 L 200.67 0" fill="#2aaa44"/><rect x="234.11" y="0" width="33.44" height="33.44" fill="#3c7363"/><path d="M 234.11 0 A 33.44 33.44 0 0 0 267.55 33.44 L 267.55 0" fill="#475076"/><rect x="200.67" y="33.44" width="33.44" height="33.44" fill="#455672"/><path d="M 200.67 33.44 A 33.44 33.44 0 0 1 234.10999999999999 66.88 L 200.67 66.88" fill="#d23c69"/><rect x="234.11" y="33.44" width="33.44" height="33.44" fill="#564e75"/><path d="M 234.11 66.88 A 33.44 33.44 0 0 1  267.55 33.44 L 267.55 66.88" fill="#368359"/><rect x="267.55555555555554" y="0" width="66.88888888888889" height="66.88888888888889" fill="#475076"/><rect x="267.56" y="0" width="33.44" height="33.44" fill="#40666a"/><path d="M 267.56 0 A 33.44 33.44 0 0 1 301 33.44 L 267.56 33.44" fill="#1cd52c"/><rect x="301" y="0" width="33.44" height="33.44" fill="#2494d4"/><path d="M 301 33.44 A 33.44 33.44 0 0 1  334.44 0 L 334.44 33.44" fill="#cf3c69"/><rect x="267.56" y="33.44" width="33.44" height="33.44" fill="#2f7fb8"/><path d="M 267.56 66.88 A 33.44 33.44 0 0 0 301 33.44 L 267.56 33.44" fill="#1adc28"/><rect x="301" y="33.44" width="33.44" height="33.44" fill="#3e6290"/><path d="M 301 33.44 A 33.44 33.44 0 0 0 334.44 66.88 L 334.44 33.44" fill="#724a72"/><rect x="334.44444444444446" y="0" width="66.88888888888889" height="66.88888888888889" fill="#475076"/><rect x="334.44" y="0" width="33.44" height="33.44" fill="#3573a6"/><path d="M 334.44 33.44 A 33.44 33.44 0 0 1  367.88 0 L 367.88 33.44" fill="#3770a2"/><rect x="367.89" y="0" width="33.44" height="33.44" fill="#338d54"/><path d="M 367.89 0 A 33.44 33.44 0 0 1 401.33 33.44 L 367.89 33.44" fill="#664b73"/><rect x="334.44" y="33.44" width="33.44" height="33.44" fill="#2593d2"/><path d="M 334.44 33.44 A 33.44 33.44 0 0 0 367.88 66.88 L 367.88 33.44" fill="#386d9d"/><rect x="367.89" y="33.44" width="33.44" height="33.44" fill="#20ca32"/><path d="M 367.89 66.88 A 33.44 33.44 0 0 0 401.33 33.44 L 367.89 33.44" fill="#455573"/><rect x="401.33" y="0" width="66.89" height="66.89" fill="#338f53"/><rect x="401.33" y="0" width="66.89" height="66.89" fill="#2f7fb7"/><rect x="468.2222222222222" y="0" width="66.88888888888889" height="66.88888888888889" fill="#475076"/><rect x="468.22" y="0" width="33.44" height="33.44" fill="#37825a"/><path d="M 468.22 33.44 A 33.44 33.44 0 0 0 501.66 0 L 468.22 0" fill="#754972"/><rect x="501.67" y="0" width="33.44" height="33.44" fill="#18e225"/><path d="M 501.67 0 A 33.44 33.44 0 0 0 535.11 33.44 L 535.11 0" fill="#644c73"/><rect x="468.22" y="33.44" width="33.44" height="33.44" fill="#d13c69"/><path d="M 468.22 33.44 A 33.44 33.44 0 0 1 501.66 66.88 L 468.22 66.88" fill="#23bf38"/><rect x="501.67" y="33.44" width="33.44" height="33.44" fill="#cd3c6a"/><path d="M 501.67 66.88 A 33.44 33.44 0 0 1  535.11 33.44 L 535.11 66.88" fill="#3b7661"/><rect x="535.1111111111111" y="0" width="66.88888888888889" height="66.88888888888889" fill="#475076"/><rect x="535.11" y="0" width="33.44" height="33.44" fill="#20cb32"/><polygon points="568.55,0 568.55,33.44 535.11,33.44" fill="#d03c69"/><rect x="568.56" y="0" width="33.44" height="33.44" fill="#1fcd31"/><polygon points="568.56,0 602,0 568.56,33.44" fill="#e93867"/><rect x="535.11" y="33.44" width="33.44" height="33.44" fill="#c43e6a"/><polygon points="535.11,33.44 568.55,33.44 568.55,66.88" fill="#20c834"/><rect x="568.56" y="33.44" width="33.44" height="33.44" fill="#7c4871"/><polygon points="568.56,33.44 602,66.88 568.56,66.88" fill="#cb3d6a"/><rect x="602" y="0" width="66.88888888888889" height="66.88888888888889" fill="#475076"/><rect x="602" y="0" width="33.44" height="33.44" fill="#ef3766"/><path d="M 602 33.44 A 33.44 33.44 0 0 0 635.44 0 L 602 0" fill="#a7426d"/><rect x="635.44" y="0" width="33.44" height="33.44" fill="#2f7fb6"/><path d="M 635.44 0 A 33.44 33.44 0 0 0 668.8800000000001 33.44 L 668.8800000000001 0" fill="#2f7fb7"/><rect x="602" y="33.44" width="33.44" height="33.44" fill="#29ad42"/><path d="M 602 33.44 A 33.44 33.44 0 0 1 635.44 66.88 L 602 66.88" fill="#ce3c6a"/><rect x="635.44" y="33.44" width="33.44" height="33.44" fill="#a2436e"/><path d="M 635.44 66.88 A 33.44 33.44 0 0 1  668.8800000000001 33.44 L 668.8800000000001 66.88" fill="#c73d6a"/><rect x="668.89" y="0" width="66.89" height="66.89" fill="#37835a"/><rect x="668.89" y="0" width="66.89" height="66.89" fill="#307db4"/><rect x="735.78" y="0" width="66.89" height="66.89" fill="#ff3565"/><rect x="735.78" y="0" width="66.89" height="66.89" fill="#3c7263"/><rect x="802.67" y="0" width="66.89" height="66.89" fill="#445971"/><rect x="802.67" y="0" width="66.89" height="66.89" fill="#425a84"/><rect x="869.5555555555555" y="0" width="66.88888888888889" height="66.88888888888889" fill="#475076"/><rect x="869.56" y="0" width="33.44" height="33.44" fill="#de3a68"/><path d="M 869.56 0 A 33.44 33.44 0 0 0 903 33.44 L 903 0" fill="#2f7eb6"/><rect x="903" y="0" width="33.44" height="33.44" fill="#674b73"/><path d="M 903 33.44 A 33.44 33.44 0 0 0 936.44 0 L 903 0" fill="#2e80b9"/><rect x="869.56" y="33.44" width="33.44" height="33.44" fill="#397a5f"/><path d="M 869.56 66.88 A 33.44 33.44 0 0 1  903 33.44 L 903 66.88" fill="#475177"/><rect x="903" y="33.44" width="33.44" height="33.44" fill="#2e80b9"/><path d="M 903 33.44 A 33.44 33.44 0 0 1 936.44 66.88 L 903 66.88" fill="#405e89"/><rect x="936.4444444444443" y="0" width="66.88888888888889" height="66.88888888888889" fill="#475076"/><rect x="936.44" y="0" width="33.44" height="33.44" fill="#455573"/><polygon points="969.8800000000001,0 969.8800000000001,33.44 936.44,33.44" fill="#b93f6b"/><rect x="969.89" y="0" width="33.44" height="33.44" fill="#1ecf30"/><polygon points="969.89,0 1003.3299999999999,33.44 969.89,33.44" fill="#278ecb"/><rect x="936.44" y="33.44" width="33.44" height="33.44" fill="#674b73"/><polygon points="936.44,33.44 969.8800000000001,33.44 936.44,66.88" fill="#21c635"/><rect x="969.89" y="33.44" width="33.44" height="33.44" fill="#368559"/><polygon points="969.89,33.44 1003.3299999999999,33.44 1003.3299999999999,66.88" fill="#3c6694"/><rect x="1003.3333333333333" y="0" width="66.88888888888889" height="66.88888888888889" fill="#475076"/><rect x="1003.33" y="0" width="33.44" height="33.44" fill="#e03a68"/><path d="M 1003.33 0 A 33.44 33.44 0 0 0 1036.77 33.44 L 1036.77 0" fill="#405d88"/><rect x="1036.78" y="0" width="33.44" height="33.44" fill="#6f4a72"/><path d="M 1036.78 33.44 A 33.44 33.44 0 0 0 1070.22 0 L 1036.78 0" fill="#45537a"/><rect x="1003.33" y="33.44" width="33.44" height="33.44" fill="#2495d5"/><path d="M 1003.33 66.88 A 33.44 33.44 0 0 1  1036.77 33.44 L 1036.77 66.88" fill="#1cd62c"/><rect x="1036.78" y="33.44" width="33.44" height="33.44" fill="#445b70"/><path d="M 1036.78 33.44 A 33.44 33.44 0 0 1 1070.22 66.88 L 1036.78 66.88" fill="#cc3d6a"/><rect x="1070.2222222222222" y="0" width="66.88888888888889" height="66.88888888888889" fill="#475076"/><rect x="1070.22" y="0" width="33.44" height="33.44" fill="#3c7263"/><path d="M 1070.22 0 A 33.44 33.44 0 0 0 1103.66 33.44 L 1103.66 0" fill="#f73666"/><rect x="1103.67" y="0" width="33.44" height="33.44" fill="#3f5f8a"/><path d="M 1103.67 33.44 A 33.44 33.44 0 0 0 1137.1100000000001 0 L 1103.67 0" fill="#30964f"/><rect x="1070.22" y="33.44" width="33.44" height="33.44" fill="#219bdd"/><path d="M 1070.22 66.88 A 33.44 33.44 0 0 1  1103.66 33.44 L 1103.66 66.88" fill="#3e6b67"/><rect x="1103.67" y="33.44" width="33.44" height="33.44" fill="#804871"/><path d="M 1103.67 33.44 A 33.44 33.44 0 0 1 1137.1100000000001 66.88 L 1103.67 66.88" fill="#1ed12f"/><rect x="0" y="66.88888888888889" width="66.88888888888889" height="66.88888888888889" fill="#475076"/><rect x="0" y="66.89" width="33.44" height="33.44" fill="#4d4f75"/><polygon points="33.44,66.89 33.44,100.33 0,100.33" fill="#e03a68"/><rect x="33.44" y="66.89" width="33.44" height="33.44" fill="#298ac6"/><polygon points="33.44,66.89 66.88,66.89 33.44,100.33" fill="#3e6d66"/><rect x="0" y="100.33" width="33.44" height="33.44" fill="#18e225"/><polygon points="0,100.33 33.44,100.33 33.44,133.76999999999998" fill="#397d5d"/><rect x="33.44" y="100.33" width="33.44" height="33.44" fill="#dc3a68"/><polygon points="33.44,100.33 66.88,133.76999999999998 33.44,133.76999999999998" fill="#358757"/><rect x="66.89" y="66.89" width="66.89" height="66.89" fill="#c13e6b"/><polygon points="66.89,66.89 133.78,66.89 133.78,133.78" fill="#348b55"/><rect x="133.78" y="66.89" width="66.89" height="66.89" fill="#22c336"/><polygon points="133.78,66.89 200.67000000000002,133.78 133.78,133.78" fill="#425e6e"/><rect x="200.66666666666666" y="66.88888888888889" width="66.88888888888889" height="66.88888888888889" fill="#475076"/><rect x="200.67" y="66.89" width="33.44" height="33.44" fill="#28b041"/><polygon points="234.10999999999999,66.89 234.10999999999999,100.33 200.67,100.33" fill="#465374"/><rect x="234.11" y="66.89" width="33.44" height="33.44" fill="#3279af"/><polygon points="234.11,66.89 267.55,100.33 234.11,100.33" fill="#278ecb"/><rect x="200.67" y="100.33" width="33.44" height="33.44" fill="#4b4f76"/><polygon points="200.67,100.33 234.10999999999999,100.33 234.10999999999999,133.76999999999998" fill="#a2436e"/><rect x="234.11" y="100.33" width="33.44" height="33.44" fill="#24bd39"/><polygon points="234.11,100.33 267.55,100.33 234.11,133.76999999999998" fill="#2e80b9"/><rect x="267.55555555555554" y="66.88888888888889" width="66.88888888888889" height="66.88888888888889" fill="#475076"/><rect x="267.56" y="66.89" width="33.44" height="33.44" fill="#3770a2"/><path d="M 267.56 100.33 A 33.44 33.44 0 0 1  301 66.89 L 301 100.33" fill="#3574a7"/><rect x="301" y="66.89" width="33.44" height="33.44" fill="#3c6593"/><path d="M 301 66.89 A 33.44 33.44 0 0 1 334.44 100.33 L 301 100.33" fill="#c43e6a"/><rect x="267.56" y="100.33" width="33.44" height="33.44" fill="#4b4f76"/><path d="M 267.56 100.33 A 33.44 33.44 0 0 0 301 133.76999999999998 L 301 100.33" fill="#3a7760"/><rect x="301" y="100.33" width="33.44" height="33.44" fill="#307cb3"/><path d="M 301 133.76999999999998 A 33.44 33.44 0 0 0 334.44 100.33 L 301 100.33" fill="#3d6e66"/><rect x="334.44444444444446" y="66.88888888888889" width="66.88888888888889" height="66.88888888888889" fill="#475076"/><rect x="334.44" y="66.89" width="33.44" height="33.44" fill="#df3a68"/><path d="M 334.44 100.33 A 33.44 33.44 0 0 0 367.88 66.89 L 334.44 66.89" fill="#425a84"/><rect x="367.89" y="66.89" width="33.44" height="33.44" fill="#5c4d74"/><path d="M 367.89 66.89 A 33.44 33.44 0 0 0 401.33 100.33 L 401.33 66.89" fill="#37835a"/><rect x="334.44" y="100.33" width="33.44" height="33.44" fill="#cb3d6a"/><path d="M 334.44 100.33 A 33.44 33.44 0 0 1 367.88 133.76999999999998 L 334.44 133.76999999999998" fill="#465275"/><rect x="367.89" y="100.33" width="33.44" height="33.44" fill="#9e436e"/><path d="M 367.89 133.76999999999998 A 33.44 33.44 0 0 1  401.33 100.33 L 401.33 133.76999999999998" fill="#40656a"/><rect x="401.33" y="66.89" width="66.89" height="66.89" fill="#3475a9"/><path d="M 401.33 66.89 A 66.89 66.89 0 0 1  468.21999999999997 133.78 L 401.33 66.89 A 66.89 66.89 0 0 0 468.21999999999997 133.78" fill="#c43e6a"/><rect x="468.22" y="66.89" width="66.89" height="66.89" fill="#5e4d74"/><polygon points="468.22,66.89 535.11,66.89 535.11,133.78" fill="#2c84be"/><rect x="535.1111111111111" y="66.88888888888889" width="66.88888888888889" height="66.88888888888889" fill="#475076"/><rect x="535.11" y="66.89" width="33.44" height="33.44" fill="#24bc3a"/><path d="M 535.11 100.33 A 33.44 33.44 0 0 0 568.55 66.89 L 535.11 66.89" fill="#3f5f8a"/><rect x="568.56" y="66.89" width="33.44" height="33.44" fill="#19df26"/><path d="M 568.56 66.89 A 33.44 33.44 0 0 0 602 100.33 L 602 66.89" fill="#7d4871"/><rect x="535.11" y="100.33" width="33.44" height="33.44" fill="#674b73"/><path d="M 535.11 100.33 A 33.44 33.44 0 0 1 568.55 133.76999999999998 L 535.11 133.76999999999998" fill="#aa416d"/><rect x="568.56" y="100.33" width="33.44" height="33.44" fill="#3572a5"/><path d="M 568.56 133.76999999999998 A 33.44 33.44 0 0 1  602 100.33 L 602 133.76999999999998" fill="#594d74"/><rect x="602" y="66.88888888888889" width="66.88888888888889" height="66.88888888888889" fill="#475076"/><rect x="602" y="66.89" width="33.44" height="33.44" fill="#298ac6"/><path d="M 602 100.33 A 33.44 33.44 0 0 1  635.44 66.89 L 635.44 100.33" fill="#2494d3"/><rect x="635.44" y="66.89" width="33.44" height="33.44" fill="#3f608c"/><path d="M 635.44 66.89 A 33.44 33.44 0 0 1 668.8800000000001 100.33 L 635.44 100.33" fill="#1fcb32"/><rect x="602" y="100.33" width="33.44" height="33.44" fill="#22c336"/><path d="M 602 100.33 A 33.44 33.44 0 0 0 635.44 133.76999999999998 L 635.44 100.33" fill="#2d83bd"/><rect x="635.44" y="100.33" width="33.44" height="33.44" fill="#91456f"/><path d="M 635.44 133.76999999999998 A 33.44 33.44 0 0 0 668.8800000000001 100.33 L 635.44 100.33" fill="#22c237"/><rect x="668.8888888888889" y="66.88888888888889" width="66.88888888888889" height="66.88888888888889" fill="#475076"/><rect x="668.89" y="66.89" width="33.44" height="33.44" fill="#20c833"/><circle cx="685.61" cy="83.61" r="16.72" fill="#f43766"/><rect x="702.33" y="66.89" width="33.44" height="33.44" fill="#3c6694"/><rect x="702.33" y="66.89" width="33.44" height="33.44" fill="#644c73"/><rect x="668.89" y="100.33" width="33.44" height="33.44" fill="#348c55"/><circle cx="685.61" cy="117.05" r="16.72" fill="#1fcd31"/><rect x="702.33" y="100.33" width="33.44" height="33.44" fill="#465178"/><rect x="702.33" y="100.33" width="33.44" height="33.44" fill="#3d6e65"/><rect x="735.78" y="66.89" width="66.89" height="66.89" fill="#e73967"/><path d="M 735.78 66.89 A 66.89 66.89 0 0 1  802.67 133.78 L 735.78 66.89 A 66.89 66.89 0 0 0 802.67 133.78" fill="#784971"/><rect x="802.6666666666666" y="66.88888888888889" width="66.88888888888889" height="66.88888888888889" fill="#475076"/><rect x="802.67" y="66.89" width="33.44" height="33.44" fill="#396b9b"/><path d="M 802.67 66.89 A 33.44 33.44 0 0 0 836.1099999999999 100.33 L 836.1099999999999 66.89" fill="#ee3767"/><rect x="836.11" y="66.89" width="33.44" height="33.44" fill="#2b86c0"/><path d="M 836.11 100.33 A 33.44 33.44 0 0 0 869.55 66.89 L 836.11 66.89" fill="#338f53"/><rect x="802.67" y="100.33" width="33.44" height="33.44" fill="#1dd32d"/><path d="M 802.67 133.76999999999998 A 33.44 33.44 0 0 1  836.1099999999999 100.33 L 836.1099999999999 133.76999999999998" fill="#3572a5"/><rect x="836.11" y="100.33" width="33.44" height="33.44" fill="#2aaa44"/><path d="M 836.11 100.33 A 33.44 33.44 0 0 1 869.55 133.76999999999998 L 836.11 133.76999999999998" fill="#2da04a"/><rect x="869.5555555555555" y="66.88888888888889" width="66.88888888888889" height="66.88888888888889" fill="#475076"/><rect x="869.56" y="66.89" width="33.44" height="33.44" fill="#435c6f"/><polygon points="903,66.89 903,100.33 869.56,100.33" fill="#465474"/><rect x="903" y="66.89" width="33.44" height="33.44" fill="#24bd3a"/><polygon points="903,66.89 936.44,100.33 903,100.33" fill="#1fcd30"/><rect x="869.56" y="100.33" width="33.44" height="33.44" fill="#2ca447"/><polygon points="869.56,100.33 903,100.33 903,133.76999999999998" fill="#3574a7"/><rect x="903" y="100.33" width="33.44" height="33.44" fill="#44577f"/><polygon points="903,100.33 936.44,100.33 903,133.76999999999998" fill="#2e82ba"/><rect x="936.44" y="66.89" width="66.89" height="66.89" fill="#e53967"/><path d="M 936.44 133.78 A 66.89 66.89 0 0 1  1003.33 66.89 L 1003.33 133.78" fill="#20ca32"/><rect x="1003.33" y="66.89" width="66.89" height="66.89" fill="#1fcd31"/><path d="M 1003.33 66.89 A 66.89 66.89 0 0 0 1070.22 133.78 L 1070.22 66.89" fill="#415c87"/><rect x="1070.22" y="66.89" width="66.89" height="66.89" fill="#1bd82b"/><rect x="1070.22" y="66.89" width="66.89" height="66.89" fill="#307db4"/><rect x="0" y="133.77777777777777" width="66.88888888888889" height="66.88888888888889" fill="#475076"/><rect x="0" y="133.78" width="33.44" height="33.44" fill="#c93d6a"/><circle cx="16.72" cy="150.5" r="16.72" fill="#3d7064"/><rect x="33.44" y="133.78" width="33.44" height="33.44" fill="#f33766"/><rect x="33.44" y="133.78" width="33.44" height="33.44" fill="#7e4871"/><rect x="0" y="167.22" width="33.44" height="33.44" fill="#465279"/><circle cx="16.72" cy="183.94" r="16.72" fill="#44567e"/><rect x="33.44" y="167.22" width="33.44" height="33.44" fill="#754972"/><rect x="33.44" y="167.22" width="33.44" height="33.44" fill="#554e75"/><rect x="66.89" y="133.78" width="66.89" height="66.89" fill="#22c436"/><rect x="66.89" y="133.78" width="66.89" height="66.89" fill="#2ca348"/><rect x="133.77777777777777" y="133.77777777777777" width="66.88888888888889" height="66.88888888888889" fill="#475076"/><rect x="133.78" y="133.78" width="33.44" height="33.44" fill="#40666a"/><path d="M 133.78 167.22 A 33.44 33.44 0 0 0 167.22 133.78 L 133.78 133.78" fill="#98446f"/><rect x="167.22" y="133.78" width="33.44" height="33.44" fill="#9c446e"/><path d="M 167.22 133.78 A 33.44 33.44 0 0 0 200.66 167.22 L 200.66 133.78" fill="#44567f"/><rect x="133.78" y="167.22" width="33.44" height="33.44" fill="#de3a68"/><path d="M 133.78 167.22 A 33.44 33.44 0 0 1 167.22 200.66 L 133.78 200.66" fill="#3e6b67"/><rect x="167.22" y="167.22" width="33.44" height="33.44" fill="#30974f"/><path d="M 167.22 200.66 A 33.44 33.44 0 0 1  200.66 167.22 L 200.66 200.66" fill="#534e75"/><rect x="200.66666666666666" y="133.77777777777777" width="66.88888888888889" height="66.88888888888889" fill="#475076"/><rect x="200.67" y="133.78" width="33.44" height="33.44" fill="#2b87c2"/><polygon points="234.10999999999999,133.78 234.10999999999999,167.22 200.67,167.22" fill="#a5426d"/><rect x="234.11" y="133.78" width="33.44" height="33.44" fill="#368559"/><polygon points="234.11,133.78 267.55,167.22 234.11,167.22" fill="#3b6796"/><rect x="200.67" y="167.22" width="33.44" height="33.44" fill="#42606d"/><polygon points="200.67,167.22 234.10999999999999,167.22 234.10999999999999,200.66" fill="#3474a8"/><rect x="234.11" y="167.22" width="33.44" height="33.44" fill="#2a88c3"/><polygon points="234.11,167.22 267.55,167.22 234.11,200.66" fill="#3377ac"/><rect x="267.55555555555554" y="133.77777777777777" width="66.88888888888889" height="66.88888888888889" fill="#475076"/><rect x="267.56" y="133.78" width="33.44" height="33.44" fill="#f03766"/><polygon points="301,133.78 301,167.22 267.56,167.22" fill="#e83867"/><rect x="301" y="133.78" width="33.44" height="33.44" fill="#2aab44"/><polygon points="301,133.78 334.44,167.22 301,167.22" fill="#298bc7"/><rect x="267.56" y="167.22" width="33.44" height="33.44" fill="#cc3d6a"/><polygon points="267.56,167.22 301,167.22 267.56,200.66" fill="#4a5076"/><rect x="301" y="167.22" width="33.44" height="33.44" fill="#26b63d"/><polygon points="301,167.22 334.44,167.22 334.44,200.66" fill="#fd3565"/><rect x="334.44" y="133.78" width="66.89" height="66.89" fill="#1fcd31"/><polygon points="334.44,133.78 401.33,133.78 401.33,200.67000000000002" fill="#7c4871"/><rect x="401.3333333333333" y="133.77777777777777" width="66.88888888888889" height="66.88888888888889" fill="#475076"/><rect x="401.33" y="133.78" width="33.44" height="33.44" fill="#1bd92a"/><path d="M 401.33 133.78 A 33.44 33.44 0 0 1 434.77 167.22 L 401.33 167.22" fill="#554e75"/><rect x="434.78" y="133.78" width="33.44" height="33.44" fill="#31964f"/><path d="M 434.78 167.22 A 33.44 33.44 0 0 1  468.21999999999997 133.78 L 468.21999999999997 167.22" fill="#2ca348"/><rect x="401.33" y="167.22" width="33.44" height="33.44" fill="#1add28"/><path d="M 401.33 200.66 A 33.44 33.44 0 0 0 434.77 167.22 L 401.33 167.22" fill="#d13c69"/><rect x="434.78" y="167.22" width="33.44" height="33.44" fill="#22c435"/><path d="M 434.78 167.22 A 33.44 33.44 0 0 0 468.21999999999997 200.66 L 468.21999999999997 167.22" fill="#2299db"/><rect x="468.2222222222222" y="133.77777777777777" width="66.88888888888889" height="66.88888888888889" fill="#475076"/><rect x="468.22" y="133.78" width="33.44" height="33.44" fill="#4b4f76"/><path d="M 468.22 167.22 A 33.44 33.44 0 0 1  501.66 133.78 L 501.66 167.22" fill="#bf3e6b"/><rect x="501.67" y="133.78" width="33.44" height="33.44" fill="#fc3565"/><path d="M 501.67 133.78 A 33.44 33.44 0 0 1 535.11 167.22 L 501.67 167.22" fill="#91456f"/><rect x="468.22" y="167.22" width="33.44" height="33.44" fill="#cc3c6a"/><path d="M 468.22 167.22 A 33.44 33.44 0 0 0 501.66 200.66 L 501.66 167.22" fill="#a9426d"/><rect x="501.67" y="167.22" width="33.44" height="33.44" fill="#278fcd"/><path d="M 501.67 200.66 A 33.44 33.44 0 0 0 535.11 167.22 L 501.67 167.22" fill="#2396d7"/><rect x="535.11" y="133.78" width="66.89" height="66.89" fill="#2b87c1"/><path d="M 535.11 200.67000000000002 A 66.89 66.89 0 0 0 602 133.78 L 535.11 133.78" fill="#45557c"/><rect x="602" y="133.78" width="66.89" height="66.89" fill="#219adc"/><rect x="602" y="133.78" width="66.89" height="66.89" fill="#3a6999"/><rect x="668.8888888888889" y="133.77777777777777" width="66.88888888888889" height="66.88888888888889" fill="#475076"/><rect x="668.89" y="133.78" width="33.44" height="33.44" fill="#3d6390"/><path d="M 668.89 167.22 A 33.44 33.44 0 0 0 702.3299999999999 133.78 L 668.89 133.78" fill="#22c237"/><rect x="702.33" y="133.78" width="33.44" height="33.44" fill="#2ba746"/><path d="M 702.33 133.78 A 33.44 33.44 0 0 0 735.77 167.22 L 735.77 133.78" fill="#d13c69"/><rect x="668.89" y="167.22" width="33.44" height="33.44" fill="#1ada29"/><path d="M 668.89 167.22 A 33.44 33.44 0 0 1 702.3299999999999 200.66 L 668.89 200.66" fill="#298ac6"/><rect x="702.33" y="167.22" width="33.44" height="33.44" fill="#f63666"/><path d="M 702.33 200.66 A 33.44 33.44 0 0 1  735.77 167.22 L 735.77 200.66" fill="#46537a"/><rect x="735.78" y="133.78" width="66.89" height="66.89" fill="#1adc28"/><polygon points="735.78,133.78 802.67,133.78 802.67,200.67000000000002" fill="#2d83bc"/><rect x="802.6666666666666" y="133.77777777777777" width="66.88888888888889" height="66.88888888888889" fill="#475076"/><rect x="802.67" y="133.78" width="33.44" height="33.44" fill="#a4426d"/><path d="M 802.67 167.22 A 33.44 33.44 0 0 1  836.1099999999999 133.78 L 836.1099999999999 167.22" fill="#2e9f4a"/><rect x="836.11" y="133.78" width="33.44" height="33.44" fill="#2b87c2"/><path d="M 836.11 133.78 A 33.44 33.44 0 0 1 869.55 167.22 L 836.11 167.22" fill="#b3406c"/><rect x="802.67" y="167.22" width="33.44" height="33.44" fill="#3f608c"/><path d="M 802.67 167.22 A 33.44 33.44 0 0 0 836.1099999999999 200.66 L 836.1099999999999 167.22" fill="#368559"/><rect x="836.11" y="167.22" width="33.44" height="33.44" fill="#4f4f75"/><path d="M 836.11 200.66 A 33.44 33.44 0 0 0 869.55 167.22 L 836.11 167.22" fill="#b6406c"/><rect x="869.56" y="133.78" width="66.89" height="66.89" fill="#1bd92a"/><rect x="869.56" y="133.78" width="66.89" height="66.89" fill="#348b56"/><rect x="936.44" y="133.78" width="66.89" height="66.89" fill="#ba3f6b"/><path d="M 936.44 133.78 A 66.89 66.89 0 0 1 1003.33 200.67000000000002 L 936.44 200.67000000000002" fill="#90456f"/><rect x="1003.3333333333333" y="133.77777777777777" width="66.88888888888889" height="66.88888888888889" fill="#475076"/><rect x="1003.33" y="133.78" width="33.44" height="33.44" fill="#27b33f"/><polygon points="1036.77,133.78 1036.77,167.22 1003.33,167.22" fill="#fe3565"/><rect x="1036.78" y="133.78" width="33.44" height="33.44" fill="#4f4f75"/><polygon points="1036.78,133.78 1070.22,133.78 1036.78,167.22" fill="#95456f"/><rect x="1003.33" y="167.22" width="33.44" height="33.44" fill="#2494d4"/><polygon points="1003.33,167.22 1036.77,167.22 1036.77,200.66" fill="#27b53e"/><rect x="1036.78" y="167.22" width="33.44" height="33.44" fill="#3b7562"/><polygon points="1036.78,167.22 1070.22,200.66 1036.78,200.66" fill="#338d54"/><rect x="1070.2222222222222" y="133.77777777777777" width="66.88888888888889" height="66.88888888888889" fill="#475076"/><rect x="1070.22" y="133.78" width="33.44" height="33.44" fill="#465275"/><path d="M 1070.22 133.78 A 33.44 33.44 0 0 1 1103.66 167.22 L 1070.22 167.22" fill="#415b85"/><rect x="1103.67" y="133.78" width="33.44" height="33.44" fill="#2e81ba"/><path d="M 1103.67 167.22 A 33.44 33.44 0 0 1  1137.1100000000001 133.78 L 1137.1100000000001 167.22" fill="#465275"/><rect x="1070.22" y="167.22" width="33.44" height="33.44" fill="#2691cf"/><path d="M 1070.22 200.66 A 33.44 33.44 0 0 0 1103.66 167.22 L 1070.22 167.22" fill="#288dca"/><rect x="1103.67" y="167.22" width="33.44" height="33.44" fill="#445a70"/><path d="M 1103.67 167.22 A 33.44 33.44 0 0 0 1137.1100000000001 200.66 L 1137.1100000000001 167.22" fill="#386ea0"/><rect x="0" y="200.67" width="66.89" height="66.89" fill="#44567f"/><rect x="0" y="200.67" width="66.89" height="66.89" fill="#d73b69"/><rect x="66.88888888888889" y="200.66666666666666" width="66.88888888888889" height="66.88888888888889" fill="#475076"/><rect x="66.89" y="200.67" width="33.44" height="33.44" fill="#674b73"/><path d="M 66.89 200.67 A 33.44 33.44 0 0 1 100.33 234.10999999999999 L 66.89 234.10999999999999" fill="#368658"/><rect x="100.33" y="200.67" width="33.44" height="33.44" fill="#714a72"/><path d="M 100.33 234.10999999999999 A 33.44 33.44 0 0 1  133.76999999999998 200.67 L 133.76999999999998 234.10999999999999" fill="#3e6d66"/><rect x="66.89" y="234.11" width="33.44" height="33.44" fill="#3a795f"/><path d="M 66.89 267.55 A 33.44 33.44 0 0 0 100.33 234.11 L 66.89 234.11" fill="#844770"/><rect x="100.33" y="234.11" width="33.44" height="33.44" fill="#b0416c"/><path d="M 100.33 234.11 A 33.44 33.44 0 0 0 133.76999999999998 267.55 L 133.76999999999998 234.11" fill="#c73d6a"/><rect x="133.78" y="200.67" width="66.89" height="66.89" fill="#298bc8"/><polygon points="133.78,200.67 200.67000000000002,200.67 133.78,267.56" fill="#435780"/><rect x="200.66666666666666" y="200.66666666666666" width="66.88888888888889" height="66.88888888888889" fill="#475076"/><rect x="200.67" y="200.67" width="33.44" height="33.44" fill="#2c84be"/><polygon points="234.10999999999999,200.67 234.10999999999999,234.10999999999999 200.67,234.10999999999999" fill="#aa426d"/><rect x="234.11" y="200.67" width="33.44" height="33.44" fill="#1fcb32"/><polygon points="234.11,200.67 267.55,234.10999999999999 234.11,234.10999999999999" fill="#455573"/><rect x="200.67" y="234.11" width="33.44" height="33.44" fill="#319550"/><polygon points="200.67,234.11 234.10999999999999,234.11 200.67,267.55" fill="#514e75"/><rect x="234.11" y="234.11" width="33.44" height="33.44" fill="#44577f"/><polygon points="234.11,234.11 267.55,234.11 267.55,267.55" fill="#3c6592"/><rect x="267.55555555555554" y="200.66666666666666" width="66.88888888888889" height="66.88888888888889" fill="#475076"/><rect x="267.56" y="200.67" width="33.44" height="33.44" fill="#405e89"/><polygon points="301,200.67 301,234.10999999999999 267.56,234.10999999999999" fill="#ba3f6b"/><rect x="301" y="200.67" width="33.44" height="33.44" fill="#3278ae"/><polygon points="301,200.67 334.44,234.10999999999999 301,234.10999999999999" fill="#2396d7"/><rect x="267.56" y="234.11" width="33.44" height="33.44" fill="#3f5f8b"/><polygon points="267.56,234.11 301,234.11 301,267.55" fill="#45547c"/><rect x="301" y="234.11" width="33.44" height="33.44" fill="#358758"/><polygon points="301,234.11 334.44,234.11 301,267.55" fill="#30974f"/><rect x="334.44444444444446" y="200.66666666666666" width="66.88888888888889" height="66.88888888888889" fill="#475076"/><rect x="334.44" y="200.67" width="33.44" height="33.44" fill="#20c933"/><circle cx="351.15999999999997" cy="217.39" r="16.72" fill="#1fcd31"/><rect x="367.89" y="200.67" width="33.44" height="33.44" fill="#2f9b4c"/><rect x="367.89" y="200.67" width="33.44" height="33.44" fill="#2f7fb7"/><rect x="334.44" y="234.11" width="33.44" height="33.44" fill="#e83867"/><circle cx="351.15999999999997" cy="250.83" r="16.72" fill="#ee3867"/><rect x="367.89" y="234.11" width="33.44" height="33.44" fill="#2aaa44"/><rect x="367.89" y="234.11" width="33.44" height="33.44" fill="#23bf38"/><rect x="401.33" y="200.67" width="66.89" height="66.89" fill="#3671a4"/><rect x="401.33" y="200.67" width="66.89" height="66.89" fill="#c13e6b"/><rect x="468.22" y="200.67" width="66.89" height="66.89" fill="#368658"/><rect x="468.22" y="200.67" width="66.89" height="66.89" fill="#7f4871"/><rect x="535.11" y="200.67" width="66.89" height="66.89" fill="#674b73"/><rect x="535.11" y="200.67" width="66.89" height="66.89" fill="#a6426d"/><rect x="602" y="200.67" width="66.89" height="66.89" fill="#e93867"/><polygon points="602,200.67 668.89,267.56 602,267.56" fill="#b5406c"/><rect x="668.89" y="200.67" width="66.89" height="66.89" fill="#19e026"/><path d="M 668.89 200.67 A 66.89 66.89 0 0 1 735.78 267.56 L 668.89 267.56" fill="#445971"/><rect x="735.78" y="200.67" width="66.89" height="66.89" fill="#2ca348"/><path d="M 735.78 267.56 A 66.89 66.89 0 0 0 802.67 200.67 L 735.78 200.67" fill="#e43967"/><rect x="802.6666666666666" y="200.66666666666666" width="66.88888888888889" height="66.88888888888889" fill="#475076"/><rect x="802.67" y="200.67" width="33.44" height="33.44" fill="#7b4871"/><polygon points="836.1099999999999,200.67 836.1099999999999,234.10999999999999 802.67,234.10999999999999" fill="#3b6795"/><rect x="836.11" y="200.67" width="33.44" height="33.44" fill="#24be39"/><polygon points="836.11,200.67 869.55,200.67 836.11,234.10999999999999" fill="#44567f"/><rect x="802.67" y="234.11" width="33.44" height="33.44" fill="#c13e6b"/><polygon points="802.67,234.11 836.1099999999999,234.11 836.1099999999999,267.55" fill="#1adc28"/><rect x="836.11" y="234.11" width="33.44" height="33.44" fill="#425e6e"/><polygon points="836.11,234.11 869.55,267.55 836.11,267.55" fill="#20c933"/><rect x="869.5555555555555" y="200.66666666666666" width="66.88888888888889" height="66.88888888888889" fill="#475076"/><rect x="869.56" y="200.67" width="33.44" height="33.44" fill="#1dd12e"/><path d="M 869.56 234.10999999999999 A 33.44 33.44 0 0 0 903 200.67 L 869.56 200.67" fill="#2299db"/><rect x="903" y="200.67" width="33.44" height="33.44" fill="#3a6a9a"/><path d="M 903 200.67 A 33.44 33.44 0 0 0 936.44 234.10999999999999 L 936.44 200.67" fill="#664c73"/><rect x="869.56" y="234.11" width="33.44" height="33.44" fill="#348d54"/><path d="M 869.56 234.11 A 33.44 33.44 0 0 1 903 267.55 L 869.56 267.55" fill="#396a9b"/><rect x="903" y="234.11" width="33.44" height="33.44" fill="#a0436e"/><path d="M 903 267.55 A 33.44 33.44 0 0 1  936.44 234.11 L 936.44 267.55" fill="#435b70"/><rect x="936.44" y="200.67" width="66.89" height="66.89" fill="#465474"/><path d="M 936.44 267.56 A 66.89 66.89 0 0 1  1003.33 200.67 L 936.44 267.56 A 66.89 66.89 0 0 0 1003.33 200.67" fill="#28af41"/><rect x="1003.3333333333333" y="200.66666666666666" width="66.88888888888889" height="66.88888888888889" fill="#475076"/><rect x="1003.33" y="200.67" width="33.44" height="33.44" fill="#405f8a"/><path d="M 1003.33 200.67 A 33.44 33.44 0 0 0 1036.77 234.10999999999999 L 1036.77 200.67" fill="#3f6868"/><rect x="1036.78" y="200.67" width="33.44" height="33.44" fill="#e13968"/><path d="M 1036.78 234.10999999999999 A 33.44 33.44 0 0 0 1070.22 200.67 L 1036.78 200.67" fill="#30984e"/><rect x="1003.33" y="234.11" width="33.44" height="33.44" fill="#b1406c"/><path d="M 1003.33 267.55 A 33.44 33.44 0 0 1  1036.77 234.11 L 1036.77 267.55" fill="#95456f"/><rect x="1036.78" y="234.11" width="33.44" height="33.44" fill="#40656a"/><path d="M 1036.78 234.11 A 33.44 33.44 0 0 1 1070.22 267.55 L 1036.78 267.55" fill="#2592d2"/><rect x="1070.22" y="200.67" width="66.89" height="66.89" fill="#734a72"/><rect x="1070.22" y="200.67" width="66.89" height="66.89" fill="#3c7263"/><rect x="0" y="267.55555555555554" width="66.88888888888889" height="66.88888888888889" fill="#475076"/><rect x="0" y="267.56" width="33.44" height="33.44" fill="#3672a5"/><polygon points="33.44,267.56 33.44,301 0,301" fill="#1dd22e"/><rect x="33.44" y="267.56" width="33.44" height="33.44" fill="#435d6f"/><polygon points="33.44,267.56 66.88,267.56 33.44,301" fill="#c73d6a"/><rect x="0" y="301" width="33.44" height="33.44" fill="#2ba746"/><polygon points="0,301 33.44,301 33.44,334.44" fill="#435780"/><rect x="33.44" y="301" width="33.44" height="33.44" fill="#29ae42"/><polygon points="33.44,301 66.88,334.44 33.44,334.44" fill="#2593d2"/><rect x="66.88888888888889" y="267.55555555555554" width="66.88888888888889" height="66.88888888888889" fill="#475076"/><rect x="66.89" y="267.56" width="33.44" height="33.44" fill="#fe3565"/><path d="M 66.89 267.56 A 33.44 33.44 0 0 1 100.33 301 L 66.89 301" fill="#2f7fb7"/><rect x="100.33" y="267.56" width="33.44" height="33.44" fill="#c23e6b"/><path d="M 100.33 301 A 33.44 33.44 0 0 1  133.76999999999998 267.56 L 133.76999999999998 301" fill="#25b93c"/><rect x="66.89" y="301" width="33.44" height="33.44" fill="#2592d1"/><path d="M 66.89 334.44 A 33.44 33.44 0 0 0 100.33 301 L 66.89 301" fill="#de3a68"/><rect x="100.33" y="301" width="33.44" height="33.44" fill="#3d7064"/><path d="M 100.33 301 A 33.44 33.44 0 0 0 133.76999999999998 334.44 L 133.76999999999998 301" fill="#24bd3a"/><rect x="133.78" y="267.56" width="66.89" height="66.89" fill="#28b240"/><rect x="133.78" y="267.56" width="66.89" height="66.89" fill="#319550"/><rect x="200.67" y="267.56" width="66.89" height="66.89" fill="#368559"/><rect x="200.67" y="267.56" width="66.89" height="66.89" fill="#2e80b9"/><rect x="267.56" y="267.56" width="66.89" height="66.89" fill="#2e81b9"/><rect x="267.56" y="267.56" width="66.89" height="66.89" fill="#2d82bc"/><rect x="334.44444444444446" y="267.55555555555554" width="66.88888888888889" height="66.88888888888889" fill="#475076"/><rect x="334.44" y="267.56" width="33.44" height="33.44" fill="#435881"/><path d="M 334.44 301 A 33.44 33.44 0 0 0 367.88 267.56 L 334.44 267.56" fill="#b3406c"/><rect x="367.89" y="267.56" width="33.44" height="33.44" fill="#c13e6b"/><path d="M 367.89 267.56 A 33.44 33.44 0 0 0 401.33 301 L 401.33 267.56" fill="#c33e6b"/><rect x="334.44" y="301" width="33.44" height="33.44" fill="#3671a3"/><path d="M 334.44 301 A 33.44 33.44 0 0 1 367.88 334.44 L 334.44 334.44" fill="#5c4d74"/><rect x="367.89" y="301" width="33.44" height="33.44" fill="#e53967"/><path d="M 367.89 334.44 A 33.44 33.44 0 0 1  401.33 301 L 401.33 334.44" fill="#fd3565"/><rect x="401.3333333333333" y="267.55555555555554" width="66.88888888888889" height="66.88888888888889" fill="#475076"/><rect x="401.33" y="267.56" width="33.44" height="33.44" fill="#2690cf"/><path d="M 401.33 267.56 A 33.44 33.44 0 0 1 434.77 301 L 401.33 301" fill="#415c87"/><rect x="434.78" y="267.56" width="33.44" height="33.44" fill="#2ba746"/><path d="M 434.78 301 A 33.44 33.44 0 0 1  468.21999999999997 267.56 L 468.21999999999997 301" fill="#b2406c"/><rect x="401.33" y="301" width="33.44" height="33.44" fill="#b83f6c"/><path d="M 401.33 334.44 A 33.44 33.44 0 0 0 434.77 301 L 401.33 301" fill="#e53967"/><rect x="434.78" y="301" width="33.44" height="33.44" fill="#485076"/><path d="M 434.78 301 A 33.44 33.44 0 0 0 468.21999999999997 334.44 L 468.21999999999997 301" fill="#2397d8"/><rect x="468.22" y="267.56" width="66.89" height="66.89" fill="#a9426d"/><rect x="468.22" y="267.56" width="66.89" height="66.89" fill="#2e9e4b"/><rect x="535.1111111111111" y="267.55555555555554" width="66.88888888888889" height="66.88888888888889" fill="#475076"/><rect x="535.11" y="267.56" width="33.44" height="33.44" fill="#2a88c3"/><path d="M 535.11 301 A 33.44 33.44 0 0 0 568.55 267.56 L 535.11 267.56" fill="#e43967"/><rect x="568.56" y="267.56" width="33.44" height="33.44" fill="#b4406c"/><path d="M 568.56 267.56 A 33.44 33.44 0 0 0 602 301 L 602 267.56" fill="#465474"/><rect x="535.11" y="301" width="33.44" height="33.44" fill="#f03766"/><path d="M 535.11 301 A 33.44 33.44 0 0 1 568.55 334.44 L 535.11 334.44" fill="#e33968"/><rect x="568.56" y="301" width="33.44" height="33.44" fill="#ac416d"/><path d="M 568.56 334.44 A 33.44 33.44 0 0 1  602 301 L 602 334.44" fill="#4a5076"/><rect x="602" y="267.56" width="66.89" height="66.89" fill="#614c74"/><polygon points="602,267.56 668.89,267.56 668.89,334.45" fill="#1dd32d"/><rect x="668.8888888888889" y="267.55555555555554" width="66.88888888888889" height="66.88888888888889" fill="#475076"/><rect x="668.89" y="267.56" width="33.44" height="33.44" fill="#4a5076"/><path d="M 668.89 267.56 A 33.44 33.44 0 0 1 702.3299999999999 301 L 668.89 301" fill="#358758"/><rect x="702.33" y="267.56" width="33.44" height="33.44" fill="#37835a"/><path d="M 702.33 301 A 33.44 33.44 0 0 1  735.77 267.56 L 735.77 301" fill="#594d74"/><rect x="668.89" y="301" width="33.44" height="33.44" fill="#1adc28"/><path d="M 668.89 334.44 A 33.44 33.44 0 0 0 702.3299999999999 301 L 668.89 301" fill="#9f436e"/><rect x="702.33" y="301" width="33.44" height="33.44" fill="#524e75"/><path d="M 702.33 301 A 33.44 33.44 0 0 0 735.77 334.44 L 735.77 301" fill="#94456f"/><rect x="735.7777777777777" y="267.55555555555554" width="66.88888888888889" height="66.88888888888889" fill="#475076"/><rect x="735.78" y="267.56" width="33.44" height="33.44" fill="#397c5e"/><path d="M 735.78 301 A 33.44 33.44 0 0 1 769.22 267.56 L 769.22 275.92 A 25.08 25.08 0 0 0 744.14 301" fill="#3c7363"/><rect x="769.22" y="267.56" width="33.44" height="33.44" fill="#8d4670"/><path d="M 769.22 267.56 A 33.44 33.44 0 0 1 802.6600000000001 301 L 794.3000000000001 301 A 25.08 25.08 0 0 0 769.22 275.92" fill="#cb3d6a"/><rect x="735.78" y="301" width="33.44" height="33.44" fill="#415b85"/><path d="M 735.78 301 A 33.44 33.44 0 0 0 769.22 334.44 L 769.22 326.08 A 25.08 25.08 0 0 1 744.14 301" fill="#534e75"/><rect x="769.22" y="301" width="33.44" height="33.44" fill="#3376ab"/><path d="M 769.22 334.44 A 33.44 33.44 0 0 0 802.6600000000001 301 L 794.3000000000001 301 A 25.08 25.08 0 0 1 769.22 326.08" fill="#2aab44"/><rect x="802.6666666666666" y="267.55555555555554" width="66.88888888888889" height="66.88888888888889" fill="#475076"/><rect x="802.67" y="267.56" width="33.44" height="33.44" fill="#2ca547"/><path d="M 802.67 267.56 A 33.44 33.44 0 0 1 836.1099999999999 301 L 802.67 301" fill="#44567e"/><rect x="836.11" y="267.56" width="33.44" height="33.44" fill="#465474"/><path d="M 836.11 301 A 33.44 33.44 0 0 1  869.55 267.56 L 869.55 301" fill="#24bd39"/><rect x="802.67" y="301" width="33.44" height="33.44" fill="#eb3867"/><path d="M 802.67 334.44 A 33.44 33.44 0 0 0 836.1099999999999 301 L 802.67 301" fill="#90456f"/><rect x="836.11" y="301" width="33.44" height="33.44" fill="#4d4f75"/><path d="M 836.11 301 A 33.44 33.44 0 0 0 869.55 334.44 L 869.55 301" fill="#d93b69"/><rect x="869.56" y="267.56" width="66.89" height="66.89" fill="#2c85bf"/><polygon points="869.56,267.56 936.4499999999999,334.45 869.56,334.45" fill="#ad416d"/><rect x="936.4444444444443" y="267.55555555555554" width="66.88888888888889" height="66.88888888888889" fill="#475076"/><rect x="936.44" y="267.56" width="33.44" height="33.44" fill="#338d54"/><path d="M 936.44 301 A 33.44 33.44 0 0 1  969.8800000000001 267.56 L 969.8800000000001 301" fill="#eb3867"/><rect x="969.89" y="267.56" width="33.44" height="33.44" fill="#2c85bf"/><path d="M 969.89 267.56 A 33.44 33.44 0 0 1 1003.3299999999999 301 L 969.89 301" fill="#c93d6a"/><rect x="936.44" y="301" width="33.44" height="33.44" fill="#e13968"/><path d="M 936.44 301 A 33.44 33.44 0 0 0 969.8800000000001 334.44 L 969.8800000000001 301" fill="#b0416c"/><rect x="969.89" y="301" width="33.44" height="33.44" fill="#e33968"/><path d="M 969.89 334.44 A 33.44 33.44 0 0 0 1003.3299999999999 301 L 969.89 301" fill="#327ab0"/><rect x="1003.33" y="267.56" width="66.89" height="66.89" fill="#425e6e"/><path d="M 1003.33 267.56 A 66.89 66.89 0 0 0 1070.22 334.45 L 1070.22 267.56" fill="#3671a3"/><rect x="1070.2222222222222" y="267.55555555555554" width="66.88888888888889" height="66.88888888888889" fill="#475076"/><rect x="1070.22" y="267.56" width="33.44" height="33.44" fill="#3a795f"/><path d="M 1070.22 267.56 A 33.44 33.44 0 0 0 1103.66 301 L 1103.66 267.56" fill="#25b83c"/><rect x="1103.67" y="267.56" width="33.44" height="33.44" fill="#1dd22e"/><path d="M 1103.67 301 A 33.44 33.44 0 0 0 1137.1100000000001 267.56 L 1103.67 267.56" fill="#1bda2a"/><rect x="1070.22" y="301" width="33.44" height="33.44" fill="#2395d6"/><path d="M 1070.22 334.44 A 33.44 33.44 0 0 1  1103.66 301 L 1103.66 334.44" fill="#e33968"/><rect x="1103.67" y="301" width="33.44" height="33.44" fill="#8b4670"/><path d="M 1103.67 301 A 33.44 33.44 0 0 1 1137.1100000000001 334.44 L 1103.67 334.44" fill="#2d83bd"/><rect x="0" y="334.44444444444446" width="66.88888888888889" height="66.88888888888889" fill="#475076"/><rect x="0" y="334.44" width="33.44" height="33.44" fill="#93456f"/><path d="M 0 367.88 A 33.44 33.44 0 0 1  33.44 334.44 L 33.44 367.88" fill="#3e6a67"/><rect x="33.44" y="334.44" width="33.44" height="33.44" fill="#514e75"/><path d="M 33.44 334.44 A 33.44 33.44 0 0 1 66.88 367.88 L 33.44 367.88" fill="#2aaa44"/><rect x="0" y="367.89" width="33.44" height="33.44" fill="#91456f"/><path d="M 0 367.89 A 33.44 33.44 0 0 0 33.44 401.33 L 33.44 367.89" fill="#45537b"/><rect x="33.44" y="367.89" width="33.44" height="33.44" fill="#2c84be"/><path d="M 33.44 401.33 A 33.44 33.44 0 0 0 66.88 367.89 L 33.44 367.89" fill="#3b6796"/><rect x="66.89" y="334.44" width="66.89" height="66.89" fill="#20c933"/><polygon points="66.89,334.44 133.78,401.33 66.89,401.33" fill="#ba3f6b"/><rect x="133.77777777777777" y="334.44444444444446" width="66.88888888888889" height="66.88888888888889" fill="#475076"/><rect x="133.78" y="334.44" width="33.44" height="33.44" fill="#455772"/><path d="M 133.78 334.44 A 33.44 33.44 0 0 1 167.22 367.88 L 133.78 367.88" fill="#317ab0"/><rect x="167.22" y="334.44" width="33.44" height="33.44" fill="#19df27"/><path d="M 167.22 367.88 A 33.44 33.44 0 0 1  200.66 334.44 L 200.66 367.88" fill="#2aaa44"/><rect x="133.78" y="367.89" width="33.44" height="33.44" fill="#3475aa"/><path d="M 133.78 401.33 A 33.44 33.44 0 0 0 167.22 367.89 L 133.78 367.89" fill="#1ed12e"/><rect x="167.22" y="367.89" width="33.44" height="33.44" fill="#3e628e"/><path d="M 167.22 367.89 A 33.44 33.44 0 0 0 200.66 401.33 L 200.66 367.89" fill="#3a7960"/><rect x="200.66666666666666" y="334.44444444444446" width="66.88888888888889" height="66.88888888888889" fill="#475076"/><rect x="200.67" y="334.44" width="33.44" height="33.44" fill="#317ab1"/><polygon points="234.10999999999999,334.44 234.10999999999999,367.88 200.67,367.88" fill="#455872"/><rect x="234.11" y="334.44" width="33.44" height="33.44" fill="#23c038"/><polygon points="234.11,334.44 267.55,367.88 234.11,367.88" fill="#b5406c"/><rect x="200.67" y="367.89" width="33.44" height="33.44" fill="#2691d0"/><polygon points="200.67,367.89 234.10999999999999,367.89 200.67,401.33" fill="#9a446e"/><rect x="234.11" y="367.89" width="33.44" height="33.44" fill="#307db4"/><polygon points="234.11,367.89 267.55,367.89 267.55,401.33" fill="#634c73"/><rect x="267.56" y="334.44" width="66.89" height="66.89" fill="#317bb1"/><polygon points="334.45,334.44 334.45,401.33 267.56,401.33" fill="#1fcc31"/><rect x="334.44444444444446" y="334.44444444444446" width="66.88888888888889" height="66.88888888888889" fill="#475076"/><rect x="334.44" y="334.44" width="33.44" height="33.44" fill="#45547b"/><circle cx="351.15999999999997" cy="351.15999999999997" r="16.72" fill="#19de27"/><rect x="367.89" y="334.44" width="33.44" height="33.44" fill="#288dca"/><rect x="367.89" y="334.44" width="33.44" height="33.44" fill="#e03a68"/><rect x="334.44" y="367.89" width="33.44" height="33.44" fill="#2495d5"/><circle cx="351.15999999999997" cy="384.61" r="16.72" fill="#1cd62b"/><rect x="367.89" y="367.89" width="33.44" height="33.44" fill="#4e4f75"/><rect x="367.89" y="367.89" width="33.44" height="33.44" fill="#415c87"/><rect x="401.33" y="334.44" width="66.89" height="66.89" fill="#e23968"/><polygon points="401.33,334.44 468.21999999999997,401.33 401.33,401.33" fill="#cc3d6a"/><rect x="468.22" y="334.44" width="66.89" height="66.89" fill="#2aab44"/><rect x="468.22" y="334.44" width="66.89" height="66.89" fill="#27b23f"/><rect x="535.1111111111111" y="334.44444444444446" width="66.88888888888889" height="66.88888888888889" fill="#475076"/><rect x="535.11" y="334.44" width="33.44" height="33.44" fill="#21c734"/><path d="M 535.11 367.88 A 33.44 33.44 0 0 0 568.55 334.44 L 535.11 334.44" fill="#1cd72b"/><rect x="568.56" y="334.44" width="33.44" height="33.44" fill="#d13c69"/><path d="M 568.56 334.44 A 33.44 33.44 0 0 0 602 367.88 L 602 334.44" fill="#3c7362"/><rect x="535.11" y="367.89" width="33.44" height="33.44" fill="#45547c"/><path d="M 535.11 367.89 A 33.44 33.44 0 0 1 568.55 401.33 L 535.11 401.33" fill="#387d5d"/><rect x="568.56" y="367.89" width="33.44" height="33.44" fill="#1adb29"/><path d="M 568.56 401.33 A 33.44 33.44 0 0 1  602 367.89 L 602 401.33" fill="#45557d"/><rect x="602" y="334.44444444444446" width="66.88888888888889" height="66.88888888888889" fill="#475076"/><rect x="602" y="334.44" width="33.44" height="33.44" fill="#864770"/><path d="M 602 334.44 A 33.44 33.44 0 0 0 635.44 367.88 L 635.44 334.44" fill="#99446e"/><rect x="635.44" y="334.44" width="33.44" height="33.44" fill="#c83d6a"/><path d="M 635.44 367.88 A 33.44 33.44 0 0 0 668.8800000000001 334.44 L 635.44 334.44" fill="#44567e"/><rect x="602" y="367.89" width="33.44" height="33.44" fill="#3c6594"/><path d="M 602 401.33 A 33.44 33.44 0 0 1  635.44 367.89 L 635.44 401.33" fill="#3d6e65"/><rect x="635.44" y="367.89" width="33.44" height="33.44" fill="#3574a7"/><path d="M 635.44 367.89 A 33.44 33.44 0 0 1 668.8800000000001 401.33 L 635.44 401.33" fill="#824771"/><rect x="668.8888888888889" y="334.44444444444446" width="66.88888888888889" height="66.88888888888889" fill="#475076"/><rect x="668.89" y="334.44" width="33.44" height="33.44" fill="#2a88c4"/><path d="M 668.89 367.88 A 33.44 33.44 0 0 0 702.3299999999999 334.44 L 668.89 334.44" fill="#a9426d"/><rect x="702.33" y="334.44" width="33.44" height="33.44" fill="#d93b69"/><path d="M 702.33 334.44 A 33.44 33.44 0 0 0 735.77 367.88 L 735.77 334.44" fill="#3a7a5f"/><rect x="668.89" y="367.89" width="33.44" height="33.44" fill="#3279af"/><path d="M 668.89 367.89 A 33.44 33.44 0 0 1 702.3299999999999 401.33 L 668.89 401.33" fill="#3b6897"/><rect x="702.33" y="367.89" width="33.44" height="33.44" fill="#2da249"/><path d="M 702.33 401.33 A 33.44 33.44 0 0 1  735.77 367.89 L 735.77 401.33" fill="#465474"/><rect x="735.7777777777777" y="334.44444444444446" width="66.88888888888889" height="66.88888888888889" fill="#475076"/><rect x="735.78" y="334.44" width="33.44" height="33.44" fill="#46537a"/><polygon points="769.22,334.44 769.22,367.88 735.78,367.88" fill="#298bc8"/><rect x="769.22" y="334.44" width="33.44" height="33.44" fill="#a7426d"/><polygon points="769.22,334.44 802.6600000000001,367.88 769.22,367.88" fill="#1ed12f"/><rect x="735.78" y="367.89" width="33.44" height="33.44" fill="#3b6796"/><polygon points="735.78,367.89 769.22,367.89 735.78,401.33" fill="#3279ae"/><rect x="769.22" y="367.89" width="33.44" height="33.44" fill="#3279ae"/><polygon points="769.22,367.89 802.6600000000001,367.89 802.6600000000001,401.33" fill="#d93b69"/><rect x="802.6666666666666" y="334.44444444444446" width="66.88888888888889" height="66.88888888888889" fill="#475076"/><rect x="802.67" y="334.44" width="33.44" height="33.44" fill="#2e82bb"/><circle cx="819.39" cy="351.15999999999997" r="16.72" fill="#319450"/><rect x="836.11" y="334.44" width="33.44" height="33.44" fill="#396b9c"/><rect x="836.11" y="334.44" width="33.44" height="33.44" fill="#2f7fb7"/><rect x="802.67" y="367.89" width="33.44" height="33.44" fill="#4b4f76"/><circle cx="819.39" cy="384.61" r="16.72" fill="#c93d6a"/><rect x="836.11" y="367.89" width="33.44" height="33.44" fill="#20c933"/><rect x="836.11" y="367.89" width="33.44" height="33.44" fill="#307db5"/><rect x="869.5555555555555" y="334.44444444444446" width="66.88888888888889" height="66.88888888888889" fill="#475076"/><rect x="869.56" y="334.44" width="33.44" height="33.44" fill="#425a83"/><path d="M 869.56 367.88 A 33.44 33.44 0 0 1 903 334.44 L 903 342.8 A 25.08 25.08 0 0 0 877.92 367.88" fill="#ec3867"/><rect x="903" y="334.44" width="33.44" height="33.44" fill="#2e9f4a"/><path d="M 903 334.44 A 33.44 33.44 0 0 1 936.44 367.88 L 928.08 367.88 A 25.08 25.08 0 0 0 903 342.8" fill="#20c834"/><rect x="869.56" y="367.89" width="33.44" height="33.44" fill="#3e6c67"/><path d="M 869.56 367.89 A 33.44 33.44 0 0 0 903 401.33 L 903 392.96999999999997 A 25.08 25.08 0 0 1 877.92 367.89" fill="#20c933"/><rect x="903" y="367.89" width="33.44" height="33.44" fill="#b93f6b"/><path d="M 903 401.33 A 33.44 33.44 0 0 0 936.44 367.89 L 928.08 367.89 A 25.08 25.08 0 0 1 903 392.96999999999997" fill="#3e6b67"/><rect x="936.4444444444443" y="334.44444444444446" width="66.88888888888889" height="66.88888888888889" fill="#475076"/><rect x="936.44" y="334.44" width="33.44" height="33.44" fill="#a4426d"/><path d="M 936.44 367.88 A 33.44 33.44 0 0 1 969.8800000000001 334.44 L 969.8800000000001 342.8 A 25.08 25.08 0 0 0 944.8000000000001 367.88" fill="#42606d"/><rect x="969.89" y="334.44" width="33.44" height="33.44" fill="#1adc29"/><path d="M 969.89 334.44 A 33.44 33.44 0 0 1 1003.3299999999999 367.88 L 994.97 367.88 A 25.08 25.08 0 0 0 969.89 342.8" fill="#3d6390"/><rect x="936.44" y="367.89" width="33.44" height="33.44" fill="#604c74"/><path d="M 936.44 367.89 A 33.44 33.44 0 0 0 969.8800000000001 401.33 L 969.8800000000001 392.96999999999997 A 25.08 25.08 0 0 1 944.8000000000001 367.89" fill="#96446f"/><rect x="969.89" y="367.89" width="33.44" height="33.44" fill="#319351"/><path d="M 969.89 401.33 A 33.44 33.44 0 0 0 1003.3299999999999 367.89 L 994.97 367.89 A 25.08 25.08 0 0 1 969.89 392.96999999999997" fill="#cc3c6a"/><rect x="1003.3333333333333" y="334.44444444444446" width="66.88888888888889" height="66.88888888888889" fill="#475076"/><rect x="1003.33" y="334.44" width="33.44" height="33.44" fill="#3475a9"/><polygon points="1036.77,334.44 1036.77,367.88 1003.33,367.88" fill="#c93d6a"/><rect x="1036.78" y="334.44" width="33.44" height="33.44" fill="#455673"/><polygon points="1036.78,334.44 1070.22,367.88 1036.78,367.88" fill="#fc3565"/><rect x="1003.33" y="367.89" width="33.44" height="33.44" fill="#fa3665"/><polygon points="1003.33,367.89 1036.77,367.89 1003.33,401.33" fill="#31964f"/><rect x="1036.78" y="367.89" width="33.44" height="33.44" fill="#d83b69"/><polygon points="1036.78,367.89 1070.22,367.89 1070.22,401.33" fill="#3572a6"/><rect x="1070.22" y="334.44" width="66.89" height="66.89" fill="#ad416d"/><polygon points="1070.22,334.44 1137.1100000000001,334.44 1070.22,401.33" fill="#25b93c"/><rect x="0" y="401.33" width="66.89" height="66.89" fill="#674b73"/><path d="M 0 468.21999999999997 A 66.89 66.89 0 0 1  66.89 401.33 L 0 468.21999999999997 A 66.89 66.89 0 0 0 66.89 401.33" fill="#e53967"/><rect x="66.89" y="401.33" width="66.89" height="66.89" fill="#329251"/><polygon points="133.78,401.33 133.78,468.21999999999997 66.89,468.21999999999997" fill="#1fcc31"/><rect x="133.77777777777777" y="401.3333333333333" width="66.88888888888889" height="66.88888888888889" fill="#475076"/><rect x="133.78" y="401.33" width="33.44" height="33.44" fill="#465178"/><polygon points="167.22,401.33 167.22,434.77 133.78,434.77" fill="#397b5e"/><rect x="167.22" y="401.33" width="33.44" height="33.44" fill="#2691cf"/><polygon points="167.22,401.33 200.66,434.77 167.22,434.77" fill="#307cb3"/><rect x="133.78" y="434.78" width="33.44" height="33.44" fill="#d73b69"/><polygon points="133.78,434.78 167.22,434.78 167.22,468.21999999999997" fill="#41646b"/><rect x="167.22" y="434.78" width="33.44" height="33.44" fill="#2b87c1"/><polygon points="167.22,434.78 200.66,434.78 167.22,468.21999999999997" fill="#a3436e"/><rect x="200.67" y="401.33" width="66.89" height="66.89" fill="#f23766"/><polygon points="200.67,401.33 267.56,468.21999999999997 200.67,468.21999999999997" fill="#764972"/><rect x="267.56" y="401.33" width="66.89" height="66.89" fill="#2f9b4c"/><rect x="267.56" y="401.33" width="66.89" height="66.89" fill="#b5406c"/><rect x="334.44" y="401.33" width="66.89" height="66.89" fill="#ad416d"/><path d="M 334.44 468.21999999999997 A 66.89 66.89 0 0 1  401.33 401.33 L 401.33 468.21999999999997" fill="#24bd39"/><rect x="401.33" y="401.33" width="66.89" height="66.89" fill="#2e82ba"/><rect x="401.33" y="401.33" width="66.89" height="66.89" fill="#2397d8"/><rect x="468.22" y="401.33" width="66.89" height="66.89" fill="#7a4871"/><rect x="468.22" y="401.33" width="66.89" height="66.89" fill="#cd3c6a"/><rect x="535.1111111111111" y="401.3333333333333" width="66.88888888888889" height="66.88888888888889" fill="#475076"/><rect x="535.11" y="401.33" width="33.44" height="33.44" fill="#f23766"/><polygon points="568.55,401.33 568.55,434.77 535.11,434.77" fill="#358658"/><rect x="568.56" y="401.33" width="33.44" height="33.44" fill="#fd3565"/><polygon points="568.56,401.33 602,401.33 568.56,434.77" fill="#704a72"/><rect x="535.11" y="434.78" width="33.44" height="33.44" fill="#445a70"/><polygon points="535.11,434.78 568.55,434.78 568.55,468.21999999999997" fill="#396c9d"/><rect x="568.56" y="434.78" width="33.44" height="33.44" fill="#3d6391"/><polygon points="568.56,434.78 602,468.21999999999997 568.56,468.21999999999997" fill="#2d83bd"/><rect x="602" y="401.3333333333333" width="66.88888888888889" height="66.88888888888889" fill="#475076"/><rect x="602" y="401.33" width="33.44" height="33.44" fill="#397a5f"/><polygon points="635.44,401.33 635.44,434.77 602,434.77" fill="#40646b"/><rect x="635.44" y="401.33" width="33.44" height="33.44" fill="#d63b69"/><polygon points="635.44,401.33 668.8800000000001,434.77 635.44,434.77" fill="#ef3766"/><rect x="602" y="434.78" width="33.44" height="33.44" fill="#5b4d74"/><polygon points="602,434.78 635.44,434.78 602,468.21999999999997" fill="#c53e6a"/><rect x="635.44" y="434.78" width="33.44" height="33.44" fill="#864770"/><polygon points="635.44,434.78 668.8800000000001,434.78 668.8800000000001,468.21999999999997" fill="#ba3f6b"/><rect x="668.89" y="401.33" width="66.89" height="66.89" fill="#445971"/><path d="M 668.89 401.33 A 66.89 66.89 0 0 0 735.78 468.21999999999997 L 735.78 401.33" fill="#435d6f"/><rect x="735.7777777777777" y="401.3333333333333" width="66.88888888888889" height="66.88888888888889" fill="#475076"/><rect x="735.78" y="401.33" width="33.44" height="33.44" fill="#5a4d74"/><polygon points="769.22,401.33 769.22,434.77 735.78,434.77" fill="#29ad42"/><rect x="769.22" y="401.33" width="33.44" height="33.44" fill="#2a89c5"/><polygon points="769.22,401.33 802.6600000000001,434.77 769.22,434.77" fill="#664b73"/><rect x="735.78" y="434.78" width="33.44" height="33.44" fill="#368359"/><polygon points="735.78,434.78 769.22,434.78 735.78,468.21999999999997" fill="#6b4b73"/><rect x="769.22" y="434.78" width="33.44" height="33.44" fill="#7c4871"/><polygon points="769.22,434.78 802.6600000000001,434.78 802.6600000000001,468.21999999999997" fill="#386e9f"/><rect x="802.67" y="401.33" width="66.89" height="66.89" fill="#dd3a68"/><rect x="802.67" y="401.33" width="66.89" height="66.89" fill="#c83d6a"/><rect x="869.5555555555555" y="401.3333333333333" width="66.88888888888889" height="66.88888888888889" fill="#475076"/><rect x="869.56" y="401.33" width="33.44" height="33.44" fill="#694b73"/><polygon points="903,401.33 903,434.77 869.56,434.77" fill="#2298da"/><rect x="903" y="401.33" width="33.44" height="33.44" fill="#3f5f8b"/><polygon points="903,401.33 936.44,434.77 903,434.77" fill="#465279"/><rect x="869.56" y="434.78" width="33.44" height="33.44" fill="#c53e6a"/><polygon points="869.56,434.78 903,434.78 869.56,468.21999999999997" fill="#319450"/><rect x="903" y="434.78" width="33.44" height="33.44" fill="#465474"/><polygon points="903,434.78 936.44,434.78 936.44,468.21999999999997" fill="#1cd62c"/><rect x="936.4444444444443" y="401.3333333333333" width="66.88888888888889" height="66.88888888888889" fill="#475076"/><rect x="936.44" y="401.33" width="33.44" height="33.44" fill="#26b73d"/><path d="M 936.44 434.77 A 33.44 33.44 0 0 1 969.8800000000001 401.33 L 969.8800000000001 409.69 A 25.08 25.08 0 0 0 944.8000000000001 434.77" fill="#25b93c"/><rect x="969.89" y="401.33" width="33.44" height="33.44" fill="#2f7fb7"/><path d="M 969.89 401.33 A 33.44 33.44 0 0 1 1003.3299999999999 434.77 L 994.97 434.77 A 25.08 25.08 0 0 0 969.89 409.69" fill="#495076"/><rect x="936.44" y="434.78" width="33.44" height="33.44" fill="#3c6593"/><path d="M 936.44 434.78 A 33.44 33.44 0 0 0 969.8800000000001 468.21999999999997 L 969.8800000000001 459.85999999999996 A 25.08 25.08 0 0 1 944.8000000000001 434.78" fill="#1cd72b"/><rect x="969.89" y="434.78" width="33.44" height="33.44" fill="#6f4a72"/><path d="M 969.89 468.21999999999997 A 33.44 33.44 0 0 0 1003.3299999999999 434.78 L 994.97 434.78 A 25.08 25.08 0 0 1 969.89 459.85999999999996" fill="#317bb2"/><rect x="1003.3333333333333" y="401.3333333333333" width="66.88888888888889" height="66.88888888888889" fill="#475076"/><rect x="1003.33" y="401.33" width="33.44" height="33.44" fill="#455872"/><circle cx="1020.0500000000001" cy="418.04999999999995" r="16.72" fill="#1ed02f"/><rect x="1036.78" y="401.33" width="33.44" height="33.44" fill="#20ca32"/><rect x="1036.78" y="401.33" width="33.44" height="33.44" fill="#2395d6"/><rect x="1003.33" y="434.78" width="33.44" height="33.44" fill="#46537a"/><circle cx="1020.0500000000001" cy="451.5" r="16.72" fill="#3a6998"/><rect x="1036.78" y="434.78" width="33.44" height="33.44" fill="#329351"/><rect x="1036.78" y="434.78" width="33.44" height="33.44" fill="#425a84"/><rect x="1070.2222222222222" y="401.3333333333333" width="66.88888888888889" height="66.88888888888889" fill="#475076"/><rect x="1070.22" y="401.33" width="33.44" height="33.44" fill="#fc3565"/><polygon points="1103.66,401.33 1103.66,434.77 1070.22,434.77" fill="#be3e6b"/><rect x="1103.67" y="401.33" width="33.44" height="33.44" fill="#278ecb"/><polygon points="1103.67,401.33 1137.1100000000001,434.77 1103.67,434.77" fill="#2e9d4b"/><rect x="1070.22" y="434.78" width="33.44" height="33.44" fill="#3b6796"/><polygon points="1070.22,434.78 1103.66,434.78 1103.66,468.21999999999997" fill="#3278ad"/><rect x="1103.67" y="434.78" width="33.44" height="33.44" fill="#3d7064"/><polygon points="1103.67,434.78 1137.1100000000001,434.78 1103.67,468.21999999999997" fill="#bc3f6b"/><rect x="0" y="468.22" width="66.89" height="66.89" fill="#6d4a73"/><path d="M 0 535.11 A 66.89 66.89 0 0 1  66.89 468.22 L 66.89 535.11" fill="#41636b"/><rect x="66.89" y="468.22" width="66.89" height="66.89" fill="#8a4670"/><polygon points="66.89,468.22 133.78,535.11 66.89,535.11" fill="#d73b69"/><rect x="133.77777777777777" y="468.2222222222222" width="66.88888888888889" height="66.88888888888889" fill="#475076"/><rect x="133.78" y="468.22" width="33.44" height="33.44" fill="#3b6795"/><path d="M 133.78 501.66 A 33.44 33.44 0 0 0 167.22 468.22 L 133.78 468.22" fill="#3377ab"/><rect x="167.22" y="468.22" width="33.44" height="33.44" fill="#425f6e"/><path d="M 167.22 468.22 A 33.44 33.44 0 0 0 200.66 501.66 L 200.66 468.22" fill="#22c336"/><rect x="133.78" y="501.67" width="33.44" height="33.44" fill="#d33c69"/><path d="M 133.78 501.67 A 33.44 33.44 0 0 1 167.22 535.11 L 133.78 535.11" fill="#2e9c4c"/><rect x="167.22" y="501.67" width="33.44" height="33.44" fill="#6d4a72"/><path d="M 167.22 535.11 A 33.44 33.44 0 0 1  200.66 501.67 L 200.66 535.11" fill="#405e89"/><rect x="200.66666666666666" y="468.2222222222222" width="66.88888888888889" height="66.88888888888889" fill="#475076"/><rect x="200.67" y="468.22" width="33.44" height="33.44" fill="#45547c"/><path d="M 200.67 501.66 A 33.44 33.44 0 0 1 234.10999999999999 468.22 L 234.10999999999999 476.58000000000004 A 25.08 25.08 0 0 0 209.02999999999997 501.66" fill="#278fcd"/><rect x="234.11" y="468.22" width="33.44" height="33.44" fill="#387d5d"/><path d="M 234.11 468.22 A 33.44 33.44 0 0 1 267.55 501.66 L 259.19 501.66 A 25.08 25.08 0 0 0 234.11 476.58000000000004" fill="#9f436e"/><rect x="200.67" y="501.67" width="33.44" height="33.44" fill="#714a72"/><path d="M 200.67 501.67 A 33.44 33.44 0 0 0 234.10999999999999 535.11 L 234.10999999999999 526.75 A 25.08 25.08 0 0 1 209.02999999999997 501.67" fill="#774972"/><rect x="234.11" y="501.67" width="33.44" height="33.44" fill="#445b70"/><path d="M 234.11 535.11 A 33.44 33.44 0 0 0 267.55 501.67 L 259.19 501.67 A 25.08 25.08 0 0 1 234.11 526.75" fill="#f13766"/><rect x="267.56" y="468.22" width="66.89" height="66.89" fill="#bf3e6b"/><path d="M 267.56 468.22 A 66.89 66.89 0 0 0 334.45 535.11 L 334.45 468.22" fill="#2b87c3"/><rect x="334.44444444444446" y="468.2222222222222" width="66.88888888888889" height="66.88888888888889" fill="#475076"/><rect x="334.44" y="468.22" width="33.44" height="33.44" fill="#3278ae"/><polygon points="367.88,468.22 367.88,501.66 334.44,501.66" fill="#7b4871"/><rect x="367.89" y="468.22" width="33.44" height="33.44" fill="#1fcd31"/><polygon points="367.89,468.22 401.33,501.66 367.89,501.66" fill="#734a72"/><rect x="334.44" y="501.67" width="33.44" height="33.44" fill="#584e74"/><polygon points="334.44,501.67 367.88,501.67 367.88,535.11" fill="#814871"/><rect x="367.89" y="501.67" width="33.44" height="33.44" fill="#7e4871"/><polygon points="367.89,501.67 401.33,501.67 367.89,535.11" fill="#714a72"/><rect x="401.3333333333333" y="468.2222222222222" width="66.88888888888889" height="66.88888888888889" fill="#475076"/><rect x="401.33" y="468.22" width="33.44" height="33.44" fill="#288dca"/><path d="M 401.33 501.66 A 33.44 33.44 0 0 1 434.77 468.22 L 434.77 476.58000000000004 A 25.08 25.08 0 0 0 409.69 501.66" fill="#338f53"/><rect x="434.78" y="468.22" width="33.44" height="33.44" fill="#22c336"/><path d="M 434.78 468.22 A 33.44 33.44 0 0 1 468.21999999999997 501.66 L 459.85999999999996 501.66 A 25.08 25.08 0 0 0 434.78 476.58000000000004" fill="#1ed02f"/><rect x="401.33" y="501.67" width="33.44" height="33.44" fill="#2f9a4d"/><path d="M 401.33 501.67 A 33.44 33.44 0 0 0 434.77 535.11 L 434.77 526.75 A 25.08 25.08 0 0 1 409.69 501.67" fill="#f23766"/><rect x="434.78" y="501.67" width="33.44" height="33.44" fill="#594d74"/><path d="M 434.78 535.11 A 33.44 33.44 0 0 0 468.21999999999997 501.67 L 459.85999999999996 501.67 A 25.08 25.08 0 0 1 434.78 526.75" fill="#4f4f75"/><rect x="468.2222222222222" y="468.2222222222222" width="66.88888888888889" height="66.88888888888889" fill="#475076"/><rect x="468.22" y="468.22" width="33.44" height="33.44" fill="#37805b"/><path d="M 468.22 501.66 A 33.44 33.44 0 0 1 501.66 468.22 L 501.66 476.58000000000004 A 25.08 25.08 0 0 0 476.58000000000004 501.66" fill="#3b6897"/><rect x="501.67" y="468.22" width="33.44" height="33.44" fill="#a8426d"/><path d="M 501.67 468.22 A 33.44 33.44 0 0 1 535.11 501.66 L 526.75 501.66 A 25.08 25.08 0 0 0 501.67 476.58000000000004" fill="#a8426d"/><rect x="468.22" y="501.67" width="33.44" height="33.44" fill="#465374"/><path d="M 468.22 501.67 A 33.44 33.44 0 0 0 501.66 535.11 L 501.66 526.75 A 25.08 25.08 0 0 1 476.58000000000004 501.67" fill="#29ad43"/><rect x="501.67" y="501.67" width="33.44" height="33.44" fill="#ec3867"/><path d="M 501.67 535.11 A 33.44 33.44 0 0 0 535.11 501.67 L 526.75 501.67 A 25.08 25.08 0 0 1 501.67 526.75" fill="#319550"/><rect x="535.11" y="468.22" width="66.89" height="66.89" fill="#bd3f6b"/><rect x="535.11" y="468.22" width="66.89" height="66.89" fill="#298bc7"/><rect x="602" y="468.22" width="66.89" height="66.89" fill="#3671a3"/><rect x="602" y="468.22" width="66.89" height="66.89" fill="#c13e6b"/><rect x="668.89" y="468.22" width="66.89" height="66.89" fill="#3d6492"/><path d="M 668.89 468.22 A 66.89 66.89 0 0 1 735.78 535.11 L 668.89 535.11" fill="#ac416d"/><rect x="735.7777777777777" y="468.2222222222222" width="66.88888888888889" height="66.88888888888889" fill="#475076"/><rect x="735.78" y="468.22" width="33.44" height="33.44" fill="#3e6b67"/><path d="M 735.78 468.22 A 33.44 33.44 0 0 0 769.22 501.66 L 769.22 468.22" fill="#1dd22e"/><rect x="769.22" y="468.22" width="33.44" height="33.44" fill="#df3a68"/><path d="M 769.22 501.66 A 33.44 33.44 0 0 0 802.6600000000001 468.22 L 769.22 468.22" fill="#3d6e65"/><rect x="735.78" y="501.67" width="33.44" height="33.44" fill="#3278ae"/><path d="M 735.78 535.11 A 33.44 33.44 0 0 1  769.22 501.67 L 769.22 535.11" fill="#3b7661"/><rect x="769.22" y="501.67" width="33.44" height="33.44" fill="#eb3867"/><path d="M 769.22 501.67 A 33.44 33.44 0 0 1 802.6600000000001 535.11 L 769.22 535.11" fill="#396a9b"/><rect x="802.67" y="468.22" width="66.89" height="66.89" fill="#307db4"/><polygon points="802.67,468.22 869.56,468.22 869.56,535.11" fill="#1ece30"/><rect x="869.5555555555555" y="468.2222222222222" width="66.88888888888889" height="66.88888888888889" fill="#475076"/><rect x="869.56" y="468.22" width="33.44" height="33.44" fill="#e93867"/><path d="M 869.56 468.22 A 33.44 33.44 0 0 0 903 501.66 L 903 468.22" fill="#8d4670"/><rect x="903" y="468.22" width="33.44" height="33.44" fill="#3573a7"/><path d="M 903 501.66 A 33.44 33.44 0 0 0 936.44 468.22 L 903 468.22" fill="#425e6e"/><rect x="869.56" y="501.67" width="33.44" height="33.44" fill="#2f9a4d"/><path d="M 869.56 535.11 A 33.44 33.44 0 0 1  903 501.67 L 903 535.11" fill="#348c55"/><rect x="903" y="501.67" width="33.44" height="33.44" fill="#9d436e"/><path d="M 903 501.67 A 33.44 33.44 0 0 1 936.44 535.11 L 903 535.11" fill="#3e618d"/><rect x="936.4444444444443" y="468.2222222222222" width="66.88888888888889" height="66.88888888888889" fill="#475076"/><rect x="936.44" y="468.22" width="33.44" height="33.44" fill="#45547c"/><circle cx="953.1600000000001" cy="484.94000000000005" r="16.72" fill="#2691cf"/><rect x="969.89" y="468.22" width="33.44" height="33.44" fill="#27b240"/><rect x="969.89" y="468.22" width="33.44" height="33.44" fill="#3c7263"/><rect x="936.44" y="501.67" width="33.44" height="33.44" fill="#2494d5"/><circle cx="953.1600000000001" cy="518.39" r="16.72" fill="#d33b69"/><rect x="969.89" y="501.67" width="33.44" height="33.44" fill="#41636c"/><rect x="969.89" y="501.67" width="33.44" height="33.44" fill="#44567e"/><rect x="1003.3333333333333" y="468.2222222222222" width="66.88888888888889" height="66.88888888888889" fill="#475076"/><rect x="1003.33" y="468.22" width="33.44" height="33.44" fill="#19df27"/><path d="M 1003.33 468.22 A 33.44 33.44 0 0 1 1036.77 501.66 L 1003.33 501.66" fill="#465275"/><rect x="1036.78" y="468.22" width="33.44" height="33.44" fill="#24bd3a"/><path d="M 1036.78 501.66 A 33.44 33.44 0 0 1  1070.22 468.22 L 1070.22 501.66" fill="#764972"/><rect x="1003.33" y="501.67" width="33.44" height="33.44" fill="#3d6390"/><path d="M 1003.33 535.11 A 33.44 33.44 0 0 0 1036.77 501.67 L 1003.33 501.67" fill="#2ca447"/><rect x="1036.78" y="501.67" width="33.44" height="33.44" fill="#784971"/><path d="M 1036.78 501.67 A 33.44 33.44 0 0 0 1070.22 535.11 L 1070.22 501.67" fill="#41626c"/><rect x="1070.22" y="468.22" width="66.89" height="66.89" fill="#f83666"/><rect x="1070.22" y="468.22" width="66.89" height="66.89" fill="#3476aa"/><rect x="0" y="535.1111111111111" width="66.88888888888889" height="66.88888888888889" fill="#475076"/><rect x="0" y="535.11" width="33.44" height="33.44" fill="#4a5076"/><polygon points="33.44,535.11 33.44,568.55 0,568.55" fill="#f03766"/><rect x="33.44" y="535.11" width="33.44" height="33.44" fill="#24bc3a"/><polygon points="33.44,535.11 66.88,568.55 33.44,568.55" fill="#3c6694"/><rect x="0" y="568.56" width="33.44" height="33.44" fill="#319351"/><polygon points="0,568.56 33.44,568.56 0,602" fill="#376fa0"/><rect x="33.44" y="568.56" width="33.44" height="33.44" fill="#41616d"/><polygon points="33.44,568.56 66.88,568.56 66.88,602" fill="#c43e6a"/><rect x="66.89" y="535.11" width="66.89" height="66.89" fill="#40666a"/><polygon points="66.89,535.11 133.78,602 66.89,602" fill="#3f618d"/><rect x="133.78" y="535.11" width="66.89" height="66.89" fill="#1cd42d"/><rect x="133.78" y="535.11" width="66.89" height="66.89" fill="#415b86"/><rect x="200.66666666666666" y="535.1111111111111" width="66.88888888888889" height="66.88888888888889" fill="#475076"/><rect x="200.67" y="535.11" width="33.44" height="33.44" fill="#3c6694"/><path d="M 200.67 568.55 A 33.44 33.44 0 0 1  234.10999999999999 535.11 L 234.10999999999999 568.55" fill="#387f5c"/><rect x="234.11" y="535.11" width="33.44" height="33.44" fill="#475076"/><path d="M 234.11 535.11 A 33.44 33.44 0 0 1 267.55 568.55 L 234.11 568.55" fill="#386d9f"/><rect x="200.67" y="568.56" width="33.44" height="33.44" fill="#3671a3"/><path d="M 200.67 568.56 A 33.44 33.44 0 0 0 234.10999999999999 602 L 234.10999999999999 568.56" fill="#b2406c"/><rect x="234.11" y="568.56" width="33.44" height="33.44" fill="#3e618e"/><path d="M 234.11 602 A 33.44 33.44 0 0 0 267.55 568.56 L 234.11 568.56" fill="#307db4"/><rect x="267.55555555555554" y="535.1111111111111" width="66.88888888888889" height="66.88888888888889" fill="#475076"/><rect x="267.56" y="535.11" width="33.44" height="33.44" fill="#f33766"/><path d="M 267.56 568.55 A 33.44 33.44 0 0 0 301 535.11 L 267.56 535.11" fill="#2e9f4a"/><rect x="301" y="535.11" width="33.44" height="33.44" fill="#24bc3a"/><path d="M 301 535.11 A 33.44 33.44 0 0 0 334.44 568.55 L 334.44 535.11" fill="#3476aa"/><rect x="267.56" y="568.56" width="33.44" height="33.44" fill="#1ece30"/><path d="M 267.56 568.56 A 33.44 33.44 0 0 1 301 602 L 267.56 602" fill="#27b43e"/><rect x="301" y="568.56" width="33.44" height="33.44" fill="#425a84"/><path d="M 301 602 A 33.44 33.44 0 0 1  334.44 568.56 L 334.44 602" fill="#386d9e"/><rect x="334.44" y="535.11" width="66.89" height="66.89" fill="#22c237"/><rect x="334.44" y="535.11" width="66.89" height="66.89" fill="#358758"/><rect x="401.3333333333333" y="535.1111111111111" width="66.88888888888889" height="66.88888888888889" fill="#475076"/><rect x="401.33" y="535.11" width="33.44" height="33.44" fill="#3377ab"/><circle cx="418.04999999999995" cy="551.83" r="16.72" fill="#6b4b73"/><rect x="434.78" y="535.11" width="33.44" height="33.44" fill="#3f5f8b"/><rect x="434.78" y="535.11" width="33.44" height="33.44" fill="#209cdf"/><rect x="401.33" y="568.56" width="33.44" height="33.44" fill="#209bde"/><circle cx="418.04999999999995" cy="585.28" r="16.72" fill="#2b87c2"/><rect x="434.78" y="568.56" width="33.44" height="33.44" fill="#3f608c"/><rect x="434.78" y="568.56" width="33.44" height="33.44" fill="#614c74"/><rect x="468.22" y="535.11" width="66.89" height="66.89" fill="#29ac43"/><polygon points="535.11,535.11 535.11,602 468.22,602" fill="#3476aa"/><rect x="535.11" y="535.11" width="66.89" height="66.89" fill="#435881"/><polygon points="535.11,535.11 602,535.11 535.11,602" fill="#278fcd"/><rect x="602" y="535.1111111111111" width="66.88888888888889" height="66.88888888888889" fill="#475076"/><rect x="602" y="535.11" width="33.44" height="33.44" fill="#2b86c0"/><polygon points="635.44,535.11 635.44,568.55 602,568.55" fill="#834770"/><rect x="635.44" y="535.11" width="33.44" height="33.44" fill="#7d4871"/><polygon points="635.44,535.11 668.8800000000001,568.55 635.44,568.55" fill="#fc3565"/><rect x="602" y="568.56" width="33.44" height="33.44" fill="#41626c"/><polygon points="602,568.56 635.44,568.56 602,602" fill="#24bb3a"/><rect x="635.44" y="568.56" width="33.44" height="33.44" fill="#9b446e"/><polygon points="635.44,568.56 668.8800000000001,568.56 668.8800000000001,602" fill="#3f6a67"/><rect x="668.89" y="535.11" width="66.89" height="66.89" fill="#38805c"/><rect x="668.89" y="535.11" width="66.89" height="66.89" fill="#624c74"/><rect x="735.78" y="535.11" width="66.89" height="66.89" fill="#f73666"/><path d="M 735.78 535.11 A 66.89 66.89 0 0 1  802.67 602 L 735.78 535.11 A 66.89 66.89 0 0 0 802.67 602" fill="#7b4871"/><rect x="802.67" y="535.11" width="66.89" height="66.89" fill="#3a795f"/><path d="M 802.67 535.11 A 66.89 66.89 0 0 1 869.56 602 L 802.67 602" fill="#1dd32d"/><rect x="869.5555555555555" y="535.1111111111111" width="66.88888888888889" height="66.88888888888889" fill="#475076"/><rect x="869.56" y="535.11" width="33.44" height="33.44" fill="#b83f6c"/><path d="M 869.56 535.11 A 33.44 33.44 0 0 0 903 568.55 L 903 535.11" fill="#435c6f"/><rect x="903" y="535.11" width="33.44" height="33.44" fill="#844770"/><path d="M 903 568.55 A 33.44 33.44 0 0 0 936.44 535.11 L 903 535.11" fill="#b4406c"/><rect x="869.56" y="568.56" width="33.44" height="33.44" fill="#475177"/><path d="M 869.56 602 A 33.44 33.44 0 0 1  903 568.56 L 903 602" fill="#3a7760"/><rect x="903" y="568.56" width="33.44" height="33.44" fill="#27b43e"/><path d="M 903 568.56 A 33.44 33.44 0 0 1 936.44 602 L 903 602" fill="#2ca348"/><rect x="936.44" y="535.11" width="66.89" height="66.89" fill="#3475a9"/><polygon points="936.44,535.11 1003.33,535.11 936.44,602" fill="#37835a"/><rect x="1003.33" y="535.11" width="66.89" height="66.89" fill="#3c7462"/><path d="M 1003.33 602 A 66.89 66.89 0 0 1  1070.22 535.11 L 1070.22 602" fill="#3f5f8b"/><rect x="1070.22" y="535.11" width="66.89" height="66.89" fill="#6d4a73"/><path d="M 1070.22 535.11 A 66.89 66.89 0 0 0 1137.1100000000001 602 L 1137.1100000000001 535.11" fill="#319450"/></g></svg>